<!DOCTYPE svg PUBLIC "-//W3C//DTD SVG 1.1//EN" "http://www.w3.org/Graphics/SVG/1.1/DTD/svg11.dtd">
<svg xmlns="http://www.w3.org/2000/svg" viewBox="0 0 597 595">
<path fill="#dfe2dd" stroke="#dfe2dd" d="M119.91 27.25c-.049 7.838-.014 21.051.078 29.363.146 13.232-.039 15.192-1.486 15.748-1.224.47-1.606 1.739-1.471 4.887.233 5.435-.957 10.753-2.406 10.748C112.039 87.988 101 79.85 101 77.953c0-.37-1.575-2.343-3.5-4.384-1.925-2.041-3.5-4.207-3.5-4.813 0-2.276 3.561-8.633 5.066-9.044 2.114-.578 2.421-13.61.434-18.366-3.46-8.281-21.43-6.752-22.784 1.939-.768 4.931.415 16.714 1.679 16.723.608.004 2.139 1.817 3.402 4.029l2.297 4.022-2.097 2.946c-1.301 1.826-3.597 3.349-6.043 4.007-7.068 1.904-9.738 7.608-14.035 29.988-1.109 5.775-2.729 13.733-3.601 17.684-.872 3.951-1.32 8.2-.996 9.441 1.006 3.847-2.012 8.714-5.624 9.068-3.663.36-5.574 6.728-5.654 18.853L46 166.592l6.997 6.265c6.272 5.615 7.381 6.232 10.708 5.954l3.712-.311 1.749-12.5c.962-6.875 1.768-13.056 1.792-13.736.023-.68-1.751-2.422-3.942-3.872-2.367-1.567-3.697-3.094-3.278-3.764.388-.62.798-3.828.911-7.128.4-11.733 1.274-17.114 4.221-26l2.985-9 .073 6.027c.044 3.687.666 6.877 1.603 8.213 1.387 1.982 1.34 2.934-.512 10.187-1.598 6.257-1.84 8.937-1.113 12.287 1.264 5.824 2.129 18.241 2.562 36.786.199 8.525.692 19.662 1.096 24.75l.735 9.25h-8.634C53.255 210 45 216.575 45 228.052c0 4.618-.494 6.76-2 8.675-1.948 2.476-2 4.045-1.985 60.158.015 60.839.065 61.527 4.595 63.534 1.99.882 1.937 1.039-1.308 3.889l-3.383 2.97.459 31.111c.252 17.111.443 32.236.424 33.611-.019 1.375-.094 17.045-.168 34.822l-.134 32.322 4.211 3.928L49.923 507h190.538c189.206 0 190.553-.014 192.539-2 1.915-1.915 2-3.333 2-33.427v-31.428l-2.5-1.966c-3.018-2.374-3.26-6.223-.5-7.947 1.932-1.206 2-2.332 2-33.085 0-36.846.451-35.147-9.329-35.147-3.119 0-5.671-.45-5.671-1s2.189-1 4.865-1c3.408 0 5.655-.621 7.5-2.073l2.635-2.072v-31.273c0-30.002-.081-31.346-2-33.082-1.1-.995-2-2.307-2-2.914 0-.608.9-1.667 2-2.354 1.933-1.207 2-2.332 2-33.646v-32.397l-6.872-5.094-6.873-5.095H123v3.559c0 1.957-.411 3.305-.912 2.995-1.087-.672-1.139-136.554-.052-136.554 1.413 0 1.958 4.663 2.622 22.41.571 15.291.462 17.786-.744 17.058-1.201-.724-1.21-.6-.056.822 1.044 1.288 1.194 3.733.65 10.608l-.707 8.933 5.35.543c14.985 1.522 32.468 1.583 37.849.133 3.025-.816 7.386-1.489 9.691-1.495 4.855-.014 5.696-.864 4.35-4.403-2.081-5.475-3.047-25.918-3.289-69.609l-.252-45.5-26.5-.267-26.5-.266.298 25.891c.26 22.629.103 25.966-1.25 26.485-1.783.684-1.744 1.43-1.608-30.564.049-11.493.544-21.922 1.113-23.417.985-2.592.081-4.298-2.303-4.347-.412-.008-.79 6.397-.84 14.235m27.213 6.102C145.067 35.83 144.44 47 146.358 47c1.21 0 1.642-.921 1.642-3.5V40l5.25-.18 5.25-.18-4.803-.377c-7.994-.627-7.754-4.58.375-6.175l4.428-.869-5.128-.109c-3.207-.069-5.547.396-6.249 1.242M150 66.5c0 4.333.422 7.5 1 7.5.578 0 1-3.167 1-7.5s-.422-7.5-1-7.5c-.578 0-1 3.167-1 7.5m-63.345-2.25c.254.412 1.085.75 1.845.75s1.591-.338 1.845-.75c.255-.413-.575-.75-1.845-.75s-2.1.337-1.845.75m-.576 12.059c-.051 1.172-.52 1.544-1.329 1.058-.718-.431-.612.035.25 1.097 1.622 1.997 2.79.069 1.656-2.733-.28-.692-.533-.438-.577.578m-10.65 8.119C74.099 89.727 78.368 96 83.304 96c2.905 0 2.947-.077 2.457-4.426-.83-7.366-8.88-12.933-10.332-7.146m21.321-1.766c.688.278 1.813.278 2.5 0 .688-.277.125-.504-1.25-.504s-1.937.227-1.25.504M147 91.566c0 7.853 1.094 9.469 6.285 9.284 3.415-.121 3.646-.233 1.215-.588-4.666-.683-5.5-1.954-5.5-8.384 0-3.252-.447-5.878-1-5.878-.55 0-1 2.505-1 5.566M100.195 90.5c.02 1.65.244 2.204.498 1.231.254-.973.237-2.323-.037-3-.274-.677-.481.119-.461 1.769m-16.116 1.083c.048 1.165.285 1.402.604.605.289-.722.253-1.585-.079-1.917-.332-.332-.568.258-.525 1.312m18.97 22.434c.012 20.578-1.414 30.959-8.598 62.603-5.065 22.315-3.922 29.38 4.753 29.38 2.161 0 3.13.562 3.516 2.038.49 1.872 1.198 2.015 8.657 1.75l8.123-.288.219-53.72.22-53.719-4.22-1.113c-2.32-.612-6.123-2.165-8.45-3.45l-4.231-2.336.011 18.855m43.017.733c-3.211 2.606-3.311 9.823-.172 12.365 5.662 4.585 13.892.085 12.656-6.92-.774-4.392-3.716-7.195-7.55-7.195-1.528 0-3.749.787-4.934 1.75m1.505 1.821C144.077 120.066 146.357 127 151 127c1.873 0 3.303-.698 3.965-1.934C157.37 120.571 155.176 115 151 115c-1.021 0-2.564.707-3.429 1.571M226 231.5v4.5h10v-9h-10v4.5m101.516-3.308c-.256.719-.589 4.008-.741 7.308-.179 3.901-.712 6.044-1.525 6.125-.687.069-2.15.181-3.25.25-4.814.301-1.966 7.125 2.974 7.125 1.585 0 1.896 1.277 2.497 10.25 1.221 18.226 3.037 20.75 14.93 20.75H348v-3.368c0-3.203-.208-3.397-4.215-3.934-5.986-.803-6.785-2.431-6.785-13.837v-9.756l5.25-.303c5.1-.293 5.259-.393 5.559-3.498l.31-3.195-5.31-.305-5.309-.304-.5-7-.5-7-4.259-.308c-2.834-.205-4.415.13-4.725 1m-73.804 13.581-8.788.306.288 18.71.288 18.711 4.75.305 4.75.305v-31.708l3.75.428c4.243.485 5.213 1.489 5.235 5.42.014 2.602.264 2.75 4.651 2.75h4.636l-.636-4.64c-.35-2.551-.636-5.241-.636-5.977 0-3.58-5.813-5.045-18.288-4.61M226 261v19h10v-38h-10v19m61.013-17.902c-5.578 1.092-7.961 3.957-7.991 9.605-.048 9.156 2.926 11.297 15.696 11.297 9.439 0 12.521 1.371 11.537 5.134-.788 3.014-4.274 3.866-15.82 3.866H280v7h13.435c15.383 0 17.506-.55 20.438-5.295 6.349-10.272.23-17.705-14.574-17.705-8.383 0-10.299-.854-10.299-4.593 0-3.027 1.572-3.407 14.082-3.407H314v-7l-11.25.11c-6.187.06-13.269.505-15.737.988m236.858 58.069c-.5 1.292-.707 9.637-.796 32.032-.062 15.712-.485 25.936-1.088 26.309-.543.336-.987 2.329-.987 4.429s-.69 5.469-1.532 7.486l-1.533 3.667-2.96-2.108c-1.641-1.168-3.522-1.786-4.218-1.385-.691.398-.93.362-.53-.081.4-.442-.612-2.33-2.25-4.195-1.637-1.865-2.995-3.937-3.018-4.606-.022-.668-1.372-2.773-3-4.677-1.627-1.904-2.945-4.154-2.928-5 .05-2.464 4.353-8.754 5.682-8.305 1.152.388 2.671-3.303 2.181-5.297-.127-.515.113-2.584.533-4.599 1.433-6.878.732-7.442-10.701-8.607-8.406-.856-10.483-.795-11.669.343-1.851 1.776-2.455 15.059-.735 16.167.648.418 1.989 2.511 2.979 4.652l1.802 3.891-2.702 2.82c-1.811 1.891-4.155 3.038-7.119 3.482-6.677 1.001-11.896 11.253-18.792 36.915-1.478 5.5-3.093 10.428-3.589 10.95-.495.523-.901 2.704-.901 4.849 0 6.456-2.654 10.852-6.337 10.497-3.733-.36-6.055 4.691-7.746 16.845l-1.03 7.403 6.111 6.875c5.056 5.689 6.748 6.954 9.806 7.336 4.684.584 3.997 1.713 7.286-11.966 3.575-14.87 3.564-15.265-.526-18.289-2.26-1.672-3.074-2.871-2.457-3.621.508-.616.967-3.541 1.021-6.5.059-3.193.699-6.061 1.575-7.057.861-.979 1.213-2.512.843-3.676-.403-1.27 1.089-6.104 4.094-13.269 4.632-11.041 6.643-13.03 4.477-4.427-.787 3.126-.787 5.199.002 7.46.834 2.395.721 5.124-.481 11.606-1.424 7.677-1.427 9.864-.029 23.225.848 8.113 1.284 16.046.967 17.629-.317 1.584-.102 9.175.477 16.869.579 7.694.876 14.165.66 14.381-.215.215-4.176-.554-8.802-1.71-14.465-3.614-28.412-2.543-27.201 2.089 1.416 5.417 26.86 18.001 36.395 18.001 1.32 0 1.895.71 1.895 2.339 0 1.537.874 2.738 2.547 3.5 4.485 2.044 10.453 1.218 10.453-1.446 0-2.043 3.189-1.704 15.5 1.646 13.193 3.591 27.191 5.063 24.059 2.53-1.068-.863-2.53-1.569-3.25-1.569-1.066 0-1.309-12.899-1.309-69.5 0-45.667.343-69.5 1-69.5.55 0 1 1.35 1 3s.45 3 1 3c.628 0 1 6.353 1 17.059 0 12.15-.316 16.863-1.1 16.379-.739-.457-.712.044.083 1.53.812 1.517.965 4.812.489 10.529l-.693 8.32 6.36.663c17.495 1.825 51.575-1.196 50.309-4.459-.324-.836-1.039-3.546-1.587-6.021-1.199-5.409-2.746-107.357-1.637-107.833 3.803-1.634-2.775-2.167-26.724-2.167-17.667 0-27.5.358-27.5 1 0 .55.438 1 .972 1 .602 0 .979 9.099.989 23.897.016 24.267-.102 25.103-3.543 25.103-1.017 0-.364-50.654.667-51.685 1.38-1.38.81-5.528-.835-6.07-.687-.226-1.308-.262-1.379-.078m-314.427 12.118c-.271.707-.37 9.144-.219 18.75l.275 17.465 4.75.305 4.75.305v-30.343l6.497.414c8.693.553 8.644.467 8.968 15.962l.279 13.357 4.628.305 4.628.305-.02-8.805c-.018-8.11-1.304-20.491-2.54-24.462-1.321-4.244-30.488-7.487-31.996-3.558M552 320.29c-2.205 1.111-2.535 1.995-2.798 7.485-.184 3.862.1 6.225.75 6.225.577 0 1.048-1.35 1.048-3 0-2.933.111-3 5-3 2.75 0 5-.45 5-1s-2.056-1-4.57-1c-4.166 0-4.541-.198-4.25-2.25.266-1.87 1.037-2.302 4.57-2.557 2.337-.17 4.25-.732 4.25-1.25 0-1.365-6.07-1.13-9 .347m1 33.71c0 6.444.292 8 1.5 8s1.5-1.556 1.5-8-.292-8-1.5-8-1.5 1.556-1.5 8m-61.25-6.338c.688.278 1.813.278 2.5 0 .688-.277.125-.504-1.25-.504s-1.937.227-1.25.504m-3 10.413c1.848 1.959 1.518 3.391-.414 1.797-1.508-1.244-1.552-1.162-.465.878.66 1.238 1.663 2.25 2.231 2.25 1.595 0 .591-5.288-1.102-5.798-1.211-.365-1.259-.196-.25.873m-8.063 5.244c-2.699 2.115-3.156 10.804-.707 13.431 6.062 6.502 10.771.152 6.651-8.968-2.359-5.223-3.695-6.226-5.944-4.463m17.313-.26c0 .582.45.781 1 .441s1-.816 1-1.059-.45-.441-1-.441-1 .477-1 1.059m-11.344 1.486c.304.794.956 1.195 1.449.89 1.24-.766 1.126-1.132-.554-1.777-.967-.371-1.265-.076-.895.887M308 376v7h-3.56c-3.503 0-3.556.061-3.25 3.75.284 3.431.565 3.75 3.31 3.75h3l.622 9.51c1.265 19.367 1.969 20.579 12.371 21.316 7.492.531 8.507.137 8.507-3.305 0-2.445-.456-2.838-3.929-3.394-6.365-1.017-7.071-2.381-7.071-13.646v-9.876l5.25-.303 5.25-.302v-7l-5.25-.302-5.25-.303V369h-10v7m190.079-.417c.048 1.165.285 1.402.604.605.289-.722.253-1.585-.079-1.917-.332-.332-.568.258-.525 1.312m52.369 4.657c.388 3.432 1.176 6.807 1.751 7.5 1.237 1.49 7.801 1.709 7.801.26 0-.55-1.334-1-2.965-1-2.944 0-5.312-2.513-4.958-5.261.451-3.496-.21-7.739-1.206-7.739-.794 0-.92 1.854-.423 6.24m-46.374 8.135c-.604 4.469-1.084 9.025-1.067 10.125.243 16.126-1.999 32.104-8.63 61.491-1.922 8.52-3.38 17.082-3.24 19.028.141 1.945-.107 4.123-.55 4.84-1.217 1.97 4.197 7.141 7.478 7.141 4.196 0 5.935 2.772 3.153 5.025-1.86 1.506-3.133 4.975-1.826 4.975 1.092 0 20.766 4.123 22.081 4.628 1.359.521 1.527-5.907 1.527-58.393v-58.979l-3.891-.623c-2.14-.342-6.152-2.143-8.915-4.002l-5.023-3.381-1.097 8.125m-17.995-4.792c.048 1.165.285 1.402.604.605.289-.722.253-1.585-.079-1.917-.332-.332-.568.258-.525 1.312M215 386.902V391l10.25.015c11.666.017 15.25 1.195 15.25 5.015 0 2.439-.133 2.477-10.743 3.02-14.509.742-19.705 5.051-17.359 14.398 1.797 7.163 5.092 8.184 24.998 7.748l13.896-.305-.574-13.695c-.946-22.531-1.791-23.435-22.468-24.018l-13.25-.374v4.098m63-2.94c-15.592.857-18 2.401-18 11.538 0 8.602 2.973 10.5 16.449 10.5 8.645 0 10.551.83 10.551 4.593 0 3.043-1.557 3.407-14.563 3.407h-11.399l-.646 2.573c-1.06 4.224.419 4.644 15.75 4.481 15.984-.171 17.63-.803 19.885-7.636 2.911-8.822-2.522-14.703-13.434-14.543-9.28.137-12.093-.898-12.093-4.447V391.5l12-.5 12-.5.33-2.891c.34-2.978-1.146-4.696-3.83-4.429-.825.082-6.675.434-13 .782M484 387c0 .55.477 1 1.059 1s.781-.45.441-1-.816-1-1.059-1-.441.45-.441 1m64.557 16.223c-4.03 5.753-.817 12.777 5.845 12.777 5.217 0 7.598-2.227 7.598-7.106 0-5.455-2.317-7.894-7.5-7.894-3.399 0-4.737.5-5.943 2.223m3.034.087c-4.036 2.951-1.494 11.69 3.4 11.69 2.693 0 4.009-2.187 4.009-6.665 0-5.61-3.429-7.935-7.409-5.025m-328.02 4.261c-4.212 4.213.137 7.429 10.045 7.429 7.849 0 8.426-.434 7.638-5.75l-.481-3.25h-7.815c-5.771 0-8.226.411-9.387 1.571m43.225 46.179-.296 6.75-3.25.313c-2.975.287-3.25.604-3.25 3.75 0 3.232.2 3.437 3.351 3.437h3.352l.582 11.25c.913 17.654 2.374 19.75 13.762 19.75H287v-3.5c0-3.192-.254-3.5-2.889-3.5-6.135 0-7.615-2.669-7.577-13.662l.035-9.838 5.215-.302c3.673-.213 5.253-.731 5.341-1.75.438-5.069.56-4.937-4.875-5.25l-5.25-.303V447H267.091l-.295 6.75m-47.524 20.439c1.009 23.33 2.528 25.009 22.228 24.575l12-.264.272-18.75.272-18.75H244v30h-6c-9.479 0-10.139-1.116-9.931-16.8l.168-12.7-4.771-.311-4.771-.311.577 13.311M43.446 533.281c-1.384 3.605.037 18.194 1.804 18.531 1.458.279 1.75-.42 1.75-4.178 0-4.493.016-4.515 3.75-4.824 2.063-.17 3.75-.76 3.75-1.31s-1.687-1.14-3.75-1.31c-3.224-.267-3.75-.653-3.75-2.75 0-2.188.421-2.44 4.083-2.44 6.15 0 4.484-2.429-1.923-2.803-3.712-.216-5.333.091-5.714 1.084M57 542c0 8.222.267 10 1.5 10s1.5-1.778 1.5-10-.267-10-1.5-10-1.5 1.778-1.5 10m7 0v10h5c3.778 0 5-.367 5-1.5 0-1.048-1.056-1.5-3.5-1.5H67v-8.5c0-6.889-.284-8.5-1.5-8.5-1.233 0-1.5 1.778-1.5 10m15.42-8.855c-1.144.555-2.831 2.281-3.75 3.836-6.487 10.982 8.559 21.666 16.77 11.908 7.528-8.946-2.368-20.913-13.02-15.744M106 542c0 8.222.267 10 1.5 10 1.111 0 1.5-1.167 1.5-4.5V543h9v4.5c0 3.333.389 4.5 1.5 4.5 1.233 0 1.5-1.778 1.5-10s-.267-10-1.5-10c-1.083 0-1.5 1.111-1.5 4v4h-9v-4c0-2.889-.417-4-1.5-4-1.233 0-1.5 1.778-1.5 10m19-1.571c0 6.325.392 8.82 1.57 9.998 3.191 3.191 8.699 3.161 11.924-.064 2.176-2.176 2.181-18.363.006-18.363-1.194 0-1.503 1.479-1.515 7.25-.018 8.397-.737 10-4.485 10s-4.467-1.603-4.485-10c-.012-5.771-.321-7.25-1.515-7.25-1.215 0-1.5 1.603-1.5 8.429m20.526-6.22c-.803 3.455-3.526 16.86-3.526 17.356 0 .239.848.435 1.885.435 1.544 0 2.014-1.038 2.603-5.747l.718-5.746 2.906 6.403c1.599 3.522 3.08 6.221 3.291 5.997.212-.224 1.496-3.056 2.854-6.294l2.469-5.887.69 3.887c1.211 6.816 1.558 7.387 4.491 7.387 1.986 0 3.095-.709 3.911-2.5.903-1.983 1.873-2.5 4.685-2.5 2.863 0 3.73.482 4.497 2.5.87 2.289 4 3.601 4 1.676 0-1.856-7.576-18.149-8.5-18.28-.55-.078-2.575 3.503-4.5 7.958-1.925 4.455-3.742 8.111-4.037 8.123-.296.013-1.196-3.689-2-8.227-1.755-9.897-2.418-10.128-5.752-2-3.144 7.664-3.184 7.665-6.147.205-2.745-6.911-3.782-7.996-4.538-4.746m37.021-1.125c-1.468 3.671-.131 18.378 1.703 18.728 1.514.29 1.755-.517 1.789-5.989l.04-6.323 6.434 7 6.433 7 .027-10.833c.021-8.23-.273-10.734-1.223-10.421-.781.258-1.364 2.81-1.553 6.802l-.304 6.389-6.356-6.969c-4.854-5.32-6.507-6.594-6.99-5.384M211 542c0 8.222.267 10 1.5 10 1.064 0 1.504-1.09 1.515-3.75l.015-3.75 3.27 3.865c2.019 2.386 3.936 3.725 5.012 3.5 1.491-.312 1.286-.917-1.412-4.181l-3.155-3.817 2.127-1.49c4.913-3.441 1.437-10.377-5.201-10.377H211v10m14-.052V552h5.5c4.222 0 5.5-.348 5.5-1.5 0-1.083-1.111-1.5-4-1.5-3.778 0-4-.167-4-3s.222-3 4-3c2.889 0 4-.417 4-1.5s-1.111-1.5-4-1.5c-3.6 0-4-.25-4-2.5 0-2.259.394-2.5 4.083-2.5 6.143 0 4.486-2.428-1.912-2.802l-5.171-.303v10.053m14.571-8.377c-2.633 2.633-1.961 6.306 1.504 8.226 5.902 3.269 6.516 3.938 5.354 5.835-1.583 2.583-3.026 2.716-5.116.474-1.341-1.44-2.278-1.731-3.339-1.036-1.774 1.163 2.936 5.93 5.859 5.93 6.357 0 8.643-8.721 3.092-11.797-5.913-3.275-6.551-3.94-5.15-5.361 1.042-1.056 1.657-1.053 3.368.015 2.704 1.689 4.814.001 2.892-2.315-1.658-1.998-6.453-1.981-8.464.029m15.54.989c-8.124 6.836-1.841 19.925 8.622 17.962 5.386-1.01 8.267-4.514 8.267-10.053 0-9.326-9.769-13.9-16.889-7.909M275 540.045c0 7.209.255 8.301 2.455 10.5 2.979 2.98 7.397 3.205 10.684.545 2.95-2.387 3.701-18.59.861-18.59-1.167 0-1.611 1.778-2 8-.499 7.985-.506 8.001-3.451 8.336-4.221.48-5.549-1.919-5.549-10.027 0-5.386-.314-6.809-1.5-6.809-1.209 0-1.5 1.561-1.5 8.045M294 542c0 8.045.282 10 1.443 10 .977 0 1.541-1.347 1.75-4.18l.307-4.18 2.886 4.18c1.643 2.379 3.689 4.18 4.75 4.18 2.52 0 2.306-.887-1.201-4.992-1.986-2.324-2.558-3.616-1.71-3.865C309.219 541.095 305.77 532 298 532h-4v10m17.111-7.44c-5.775 4.859-4.744 13.51 2.027 17.012 3.487 1.803 8.914 1.275 10.848-1.055 1.966-2.369.276-3.494-2.883-1.918-7.545 3.764-14-6.388-7.375-11.599 2.624-2.064 3.683-2.119 9.022-.464 2.641.818 2.98-.663.679-2.965-2.501-2.5-8.77-1.996-12.318.989m16.556-1.893c-.367.366-.667 4.866-.667 10V552h5.5c4.222 0 5.5-.348 5.5-1.5 0-1.048-1.056-1.5-3.5-1.5-3.222 0-3.5-.238-3.5-3s.278-3 3.5-3c2.444 0 3.5-.452 3.5-1.5s-1.056-1.5-3.5-1.5c-3.067 0-3.5-.31-3.5-2.5s.433-2.5 3.5-2.5c2.444 0 3.5-.452 3.5-1.5 0-1.555-8.894-2.272-10.333-.833m14.533.533c-2.975 2.975-1.069 7.692 4.157 10.286 2.76 1.37 3.348 5.03.955 5.948-1.187.455-2.335.021-3.39-1.282-2.084-2.574-5.026-1.182-3.318 1.57 3.253 5.243 11.896 2.852 11.896-3.292 0-2.243-.91-3.464-4.25-5.708-2.337-1.57-4.25-3.499-4.25-4.288 0-1.616 3.095-1.939 4.558-.476.612.612 1.499.605 2.45-.019 1.285-.841 1.223-1.183-.449-2.458-2.341-1.786-6.707-1.933-8.359-.281m21.9 1.05c-2.456 6.501-2.04 18.063.815 22.628 1.984 3.174 2.738-.028 1.319-5.597-1.442-5.652-.967-12.413 1.229-17.531.54-1.259.293-1.75-.881-1.75-.897 0-2.014 1.013-2.482 2.25M370 542c0 8.222.267 10 1.5 10 1.083 0 1.5-1.111 1.5-4 0-3.6.25-4 2.5-4 3.003 0 6.5-3.228 6.5-6 0-3.341-3.545-6-8-6h-4v10m13.58-5.399c1.75 5.812 1.752 11.724.006 16.613-1.852 5.189.071 7.029 2.28 2.181 3.17-6.957 1.782-22.454-2.078-23.197-1.478-.285-1.497.12-.208 4.403M399 542v10h5c3.778 0 5-.367 5-1.5 0-1.048-1.056-1.5-3.5-1.5H402v-8.5c0-6.889-.284-8.5-1.5-8.5-1.233 0-1.5 1.778-1.5 10m8.527-9.044c-1.019 1.649.371 3.044 3.032 3.044 2.385 0 2.441.185 2.441 8 0 6.444.292 8 1.5 8 1.207 0 1.5-1.548 1.5-7.934 0-7.911.008-7.934 2.75-8.25 1.637-.188 2.75-.923 2.75-1.816 0-1.813-12.902-2.777-13.973-1.044m15.473 8.92V552h5.277c6.321 0 9.299-1.805 10.569-6.405 2.139-7.745-1.662-12.666-10.338-13.386l-5.508-.457v10.124M80 537c-4.416 4.416-1.513 12.017 4.579 11.985 3.48-.019 4.737-.753 6.271-3.669 3.59-6.819-5.432-13.734-10.85-8.316m134 .5c0 1.846.531 2.5 2.031 2.5 2.481 0 3.79-2.867 1.865-4.086-2.466-1.561-3.896-.979-3.896 1.586m43.174-.186c-4.504 4.795-1.759 11.686 4.655 11.686 6.554 0 9.37-6.892 4.716-11.545-3.08-3.081-6.559-3.133-9.371-.141M297 537.5c0 2 .5 2.5 2.5 2.5 2.876 0 3.581-3.371.918-4.393-2.742-1.052-3.418-.678-3.418 1.893m76.558-1.725c-1.387 1.387-.53 5.428 1.024 4.832.87-.334 1.995-.607 2.5-.607.505 0 .918-.848.918-1.883 0-1.795-3.267-3.517-4.442-2.342m53.14-.139c-.384.383-.698 3.547-.698 7.031V549h3.443c3.97 0 6.557-2.822 6.557-7.151 0-2.888-2.273-5.849-4.49-5.849-.74 0-1.969-.239-2.73-.531-.762-.292-1.698-.217-2.082.167m-255.059 4.862c-.893 2.327-.832 2.502.861 2.502 1.683 0 1.873-.863.624-2.834-.675-1.064-.975-.997-1.485.332" fill-rule="evenodd"/>
<path fill="#c58a5d" stroke="#c58a5d" d="M124.389 20.82c.279.451.795 12.264 1.147 26.25.487 19.32 1 26.23 2.136 28.758 1.348 2.999 1.335 3.507-.132 5.128-1.675 1.851-4.06 56.459-2.547 58.302 1.441 1.754 37.251 2.053 43.651.364 3.38-.892 7.815-1.622 9.857-1.622 3.14 0 3.603-.27 3.002-1.75-.391-.963-1.115-3.1-1.609-4.75-1.64-5.478-2.775-38.534-2.583-75.25L177.5 20h-26.809c-14.745 0-26.581.369-26.302.82m25.732 11.182c-4.385 1.036-5.087 2.307-5.106 9.248-.012 4.451.324 5.75 1.485 5.75 1 0 1.5-1 1.5-3 0-2.933.111-3 5-3 3.778 0 5-.367 5-1.5s-1.222-1.5-5-1.5c-2.75 0-5-.36-5-.8 0-1.836 2.642-3.2 6.2-3.2 2.711 0 3.8-.43 3.8-1.5 0-1.642-2.393-1.793-7.879-.498M81.324 37.71c-3.609 1.799-5.099 7.745-3.827 15.275.674 3.989 2.503 4.687 2.503.956 0-1.068.338-1.888.75-1.823 2.638.417 6.25-.293 6.25-1.227 0-.679-1.358-.951-3.5-.701-3.746.437-4.393-.653-2.493-4.204 1.142-2.134 12.391-2.73 14.739-.782 2.602 2.16 1.524 5.489-1.628 5.027-1.584-.233-3.186.07-3.559.673-.584.945 2.81 1.669 5.691 1.214.412-.065.75.755.75 1.823 0 2.388 1.598 3.548 2.315 1.681 5.215-13.591-5.417-24.176-17.991-17.912m.246 17.176c-.633 1.025 2.329 1.991 4.186 1.366.691-.233 1.002-.834.691-1.337-.723-1.171-4.159-1.191-4.877-.029m9.43.055c0 1.457 1.786 2.214 2.5 1.059.351-.568 1.127-.731 1.724-.362.647.401.797.206.371-.483C94.742 53.773 91 53.6 91 54.941m58.208 11.809c.23 6.092.613 7.75 1.792 7.75s1.562-1.658 1.792-7.75c.274-7.281.166-7.75-1.792-7.75s-2.066.469-1.792 7.75m-61.681 8.433c-.254.724-.364 9.795-.244 20.156.215 18.708.234 18.853 2.687 20.838l2.469 1.999 1.912-2.338c1.953-2.389 1.84-25.69-.181-37.338-.722-4.163-5.508-6.553-6.643-3.317m58.93 17.567c.778 7.6 2.083 9.25 7.317 9.25 4.463 0 3.803-2.319-.853-3l-3.421-.5-.298-6.25c-.232-4.884-.64-6.25-1.866-6.25-1.338 0-1.468.992-.879 6.75m-.82 21.756c-3.406 3.406-3.199 11.588.34 13.482 8.115 4.343 16.105-3.264 11.873-11.304-2.098-3.986-9.148-5.243-12.213-2.178m1.791 2.964c-2.608 3.979-.905 8.928 3.21 9.333 2.599.255 3.267-.16 4.309-2.676 2.649-6.393-3.896-12.187-7.519-6.657M75 120.237c0 1.323-.716 4.509-1.592 7.078-1.444 4.239-1.452 6.081-.082 19.928.831 8.391 1.434 18.407 1.342 22.257-.092 3.85.23 14.537.716 23.75l.883 16.75h-8.296c-7.627 0-8.706.26-13.383 3.223-9.185 5.82-9.183 5.81-10.593 51.777-1.084 35.374-1.062 28.463-.203 63l.708 28.5 3.5 1.748c3.295 1.647 14.183 1.745 186 1.689 100.375-.034 185.815-.393 189.867-.798 10.707-1.072 10.133.9 10.133-34.84 0-32.947.397-30.44-5.5-34.709l-2-1.447 2-.724c5.647-2.042 5.5-1.107 5.5-35.05v-31.321l-7.339-5.524-7.339-5.524H124.121l-.311 3.742c-.469 5.653-3.81 5.944-3.81.331V210h-8c-6.667 0-8.333-.333-10-2-1.1-1.1-3.041-2-4.313-2-2.927 0-8.222-5.326-7.1-7.141.443-.717.689-2.919.546-4.893-.142-1.974 1.31-10.537 3.227-19.028 8.241-36.5 10.615-57.802 6.265-56.221-2.72.988-8.141.969-17.875-.065-7.748-.822-7.75-.822-7.75 1.585m-20 19.891c-.825.48-2.682 1.291-4.126 1.801-2.814.994-3.675 4.58-4.398 18.319l-.303 5.749 6.65 6.001c8.27 7.465 13.655 8.476 14.652 2.752 3.768-21.633 3.404-25.384-2.651-27.306-1.299-.412-1.824-1.568-1.824-4.011 0-3.672-1.854-4.706-2.692-1.502-.603 2.304-3.056 1.681-3.5-.888-.221-1.284-.731-1.542-1.808-.915m208.5 80.603c69.627.682 166.263.693 165.846.019-.255-.412-43.75-.645-96.655-.517-52.905.129-84.041.353-69.191.498M225 232.05v5.05l5.75-.3 5.75-.3.219-4.75.219-4.75H225v5.05m101.832 1.948.332 7.002h-3.582c-3.503 0-3.582.087-3.582 3.937 0 3.71.187 3.954 3.25 4.25l3.25.313.594 11.167c.916 17.21 2.503 19.333 14.453 19.333H348v-4c0-3.861-.115-4-3.309-4-6.278 0-7.191-1.608-7.191-12.668V249.5l5.25-.302 5.25-.303V241h-11v-14l-5.25-.002-5.25-.003.332 7.003M225 260.5V280h11v-39h-11v19.5m20-.084V280h9.948l.276-15.25.276-15.25h3.5c3.333 0 3.524.19 4 4 .5 3.998.503 4 5.37 4.31l4.871.309-.419-6.572c-.608-9.547-1.26-9.974-15.855-10.381L245 240.833v19.583m44.699-18.412c-9.486 1.214-13.205 6.689-10.746 15.82 1.479 5.496 3.439 6.362 16.003 7.077 9.058.516 10.57.849 10.866 2.397.762 3.992-1.42 4.702-14.444 4.702H279v8l15.25-.032c10.431-.022 15.738-.417 16.796-1.25 3.268-2.575 4.954-6.252 4.954-10.806 0-8.588-5.035-11.895-18.128-11.906-6.97-.006-9.456-1.321-8.282-4.379.538-1.402 17.862-2.51 23.16-1.481.862.167 2.264-7.265 1.583-8.396-.555-.923-16.735-.756-24.634.254m-39.199 50.98c2.042.782 27.307 1.448 26.464.698-.255-.227-6.764-.649-14.464-.938-7.7-.289-13.1-.181-12 .24m35 .019c-3.85.327 27.2.681 69 .787 45.217.114 75.429-.172 74.591-.707-1.544-.983-132.105-1.057-143.591-.08m242.831 16.418c.3.782.834 12.369 1.185 25.75.47 17.88 1.037 25.378 2.137 28.287 1.348 3.563 1.339 4.075-.087 5.117-1.597 1.168-4.097 56.821-2.633 58.623 1.402 1.726 36.444 2.071 42.711.42 3.38-.89 7.723-1.618 9.652-1.618h3.508l-1.341-4.456c-2.03-6.746-3.32-38.984-3.132-78.294L580.5 308h-26.357c-22.367 0-26.274.215-25.812 1.421m-318.081 2.202c-.938.408-1.25 5.384-1.25 19.96V351h10v-30h6.3c8.685 0 8.7.028 8.7 16.2V351h5.031c6.365 0 6.237.437 5.051-17.278-1.426-21.277-1.854-21.747-20.313-22.285-6.748-.197-12.831-.113-13.519.186m340.321 8.948c-2.011 2.012-2.301 14.835-.321 14.185.688-.225 1.391-1.838 1.563-3.583.301-3.04.5-3.173 4.75-3.173 2.441 0 4.437-.45 4.437-1s-2.025-1-4.5-1c-3.026 0-4.5-.426-4.5-1.3 0-2.229 2.265-3.7 5.7-3.7 1.815 0 3.3-.45 3.3-1 0-1.65-8.683-1.174-10.429.571m-66.162 6.806c-.291.757-.389 3.57-.219 6.25.292 4.586.472 4.871 3.06 4.834 1.512-.022 2.75.324 2.75.769 0 .444 1.03.55 2.289.234 1.259-.316 3.434-.14 4.834.392 1.45.552 3.142.598 3.934.109.858-.53 1.672-.404 2.125.329 1.911 3.093 5.533-8.089 3.718-11.48-2.096-3.916-3.834-2.1-3.288 3.436.404 4.1.273 4.867-.597 3.5-1.407-2.21-4.92-2.262-6.503-.097-1.212 1.657-4.035 1.002-2.987-.693.687-1.112-4.01-2.396-5.468-1.495-1.618 1-1.263-2.726.5-5.242 1.488-2.126 1.443-2.223-1.032-2.223-1.423 0-2.826.62-3.116 1.377m14.404 9.306c.721.289 1.584.253 1.916-.079.332-.332-.258-.568-1.312-.525-1.165.048-1.402.285-.604.604M553 354c0 6.444.292 8 1.5 8s1.5-1.556 1.5-8-.292-8-1.5-8-1.5 1.556-1.5 8m-61.156 3.684c-.086.449-.264 1.941-.395 3.316-.131 1.375-.936 6.325-1.788 11-3.707 20.341-1.785 33.334 3.944 26.672 2.585-3.005 3.663-11.408 3.805-29.672l.09-11.5-2.75-.316c-1.512-.174-2.82.051-2.906.5m-445.209 6.389L44 366.145v30.728c0 20.888.35 31.077 1.093 31.82.79.79.79 1.657 0 3.134-2.19 4.092-1.437 64.204.871 69.59L47.929 506h191.913c163.34 0 192.086-.209 193.076-1.401 1.249-1.505 1.678-61.883.462-65.052-.348-.906-1.926-1.906-3.506-2.222-4-.8-3.794-4.198.415-6.845l3.211-2.02.265-30.9c.262-30.59.242-30.923-1.925-33.23l-2.189-2.33H49.27l-2.635 2.073m182.615.643c1.512.229 3.988.229 5.5 0s.275-.416-2.75-.416-4.262.187-2.75.416m12.25.293c5.223 1.017 183.772.985 180.5-.032-1.375-.428-43.45-.771-93.5-.762-50.05.008-89.2.365-87 .794m66.167 3.658c-.367.366-.667 3.741-.667 7.5V383h-3.5c-3.408 0-3.5.104-3.5 3.94 0 3.83.104 3.948 3.75 4.25l3.75.31.613 11.5c.904 16.959 2.454 19 14.434 19H329v-4c0-3.905-.083-4-3.5-4-6.132 0-7.5-2.463-7.5-13.5V391h10.79l.381-4 .382-4H317.894l.206-6.348c.113-3.492-.115-6.867-.506-7.5-.755-1.222-8.798-1.614-9.927-.485m242.506 11.392c.269 4.761.876 7.36 1.863 7.984 1.97 1.246 8.964 1.212 8.964-.043 0-.55-1.088-1-2.418-1-4.997 0-5.582-.798-5.582-7.607 0-5.215-.297-6.393-1.613-6.393-1.369 0-1.552 1.067-1.214 7.059M506 379.378c0 .207.788.995 1.75 1.75 1.586 1.243 1.621 1.208.378-.378-1.307-1.666-2.128-2.195-2.128-1.372m-292 7.511v3.89l12.022.722c10.643.64 12.191.965 13.5 2.833 2.325 3.32 1.876 3.666-4.772 3.672-16.759.015-22.75 3.045-22.75 11.503 0 10.904 3.431 12.643 24.207 12.267l15.293-.276.219-4c.308-5.632-1.558-25.947-2.647-28.809-1.679-4.417-6.485-5.691-21.473-5.691H214v3.889m54-2.804c-7.878 1.515-10.967 7.975-7.95 16.628 1.449 4.157 4.918 5.451 15.765 5.88 10.315.409 11.185.676 11.185 3.431 0 3.134-3.266 3.976-15.434 3.976H260v8h14.777c18.457 0 22.223-2.157 22.223-12.728 0-7.758-3.982-10.486-16.396-11.235-6.939-.419-9.134-.916-9.978-2.259-2.052-3.269.711-4.256 12.921-4.614l11.453-.336V383l-11.25.11c-6.187.06-13.275.499-15.75.975m206.117 19.863c-2.139 10.108-3.183 17.137-2.667 17.971 1.183 1.915 2.485 20.817 3.101 45.026.355 13.994 1.052 26.511 1.548 27.815.495 1.303.901 3.861.901 5.683 0 3.782 1.4 5.287 5.723 6.152 6.219 1.243 8.394-1.99 5.816-8.648-.491-1.266.052-1.476 2.936-1.14 9.296 1.086 15.409-3.806 6.614-5.292-8.479-1.433-9.526-7.104-5.024-27.239 5.862-26.216 8.076-38.824 8.754-49.839l.681-11.063-13.71-1.989-13.709-1.989-.964 4.552m75.57-2.698c-4.372 3.225-3.65 13.053 1.091 14.856 7.244 2.754 12.874-2.28 11.142-9.961-1.279-5.67-7.698-8.239-12.233-4.895m1.513 2.95c-3.062 3.062-.793 9.8 3.3 9.8 2.955 0 4.5-1.888 4.5-5.5s-1.545-5.5-4.5-5.5c-1.155 0-2.64.54-3.3 1.2m-326.45 2.88c-2.182 1.271-2.294 5.497-.168 6.313.87.334 4.92.607 9 .607H241v-8l-7.25.03c-3.988.017-8.037.489-9 1.05m225.117 13.642c-3.517.372-3.69.584-5.389 6.581-.965 3.409-1.911 7.96-2.103 10.116-.191 2.155-.588 4.677-.883 5.605-.931 2.933 12.275 15.976 16.176 15.976h3.166l3.152-13.25 3.152-13.25-3.511-3c-2.479-2.118-3.631-4.029-3.917-6.5-.36-3.097-.495-3.241-1.175-1.25-.952 2.788-2.549 2.911-3.245.25-.288-1.1-.808-1.924-1.157-1.832-.348.093-2.268.342-4.266.554M247.5 440.035c-13.244.394-7.482.592 21.809.75 28.562.154 39.618-.093 39.134-.877-.682-1.103-20.973-1.061-60.943.127m64.5-.126c0 .773 14.175 1.091 48.667 1.091 26.766 0 48.479-.168 48.25-.374-1.144-1.028-96.917-1.737-96.917-.717M266 453v7h-3.5c-3.417 0-3.5.095-3.5 4 0 3.872.107 4 3.357 4h3.357l.689 10.25C267.669 497.072 269 499 280.723 499H288v-3.488c0-3.306-.213-3.522-4.067-4.139-6.355-1.016-6.933-2.136-6.933-13.444V468h11v-8h-11v-14h-11v7m-47.984 10.75c.041 9.807 2.108 27.588 3.524 30.328 2.197 4.248 4.871 4.922 19.525 4.922H254V459.895l-5.25.303-5.25.302-.113 15-.113 15-6.287-.185c-8.033-.235-7.953-.069-7.972-16.565L229 460h-11l.016 3.75M80.055 533.218c-4.304 2.264-6.52 7.287-5.184 11.747 3.21 10.713 20.129 8.72 20.129-2.372 0-7.155-8.743-12.64-14.945-9.375m64.434 8.018c-1.018 5.355-1.52 10.067-1.115 10.471 1.015 1.015 2.571-1.687 2.71-4.707.335-7.273 1.382-7.588 3.927-1.179 2.993 7.535 2.936 7.531 6.098.429l2.559-5.75 1.237 5.75c1.136 5.281 1.458 5.75 3.947 5.75 2.092 0 2.967-.683 3.842-3 .972-2.576 1.646-3 4.771-3 3.144 0 3.781.408 4.685 3 .575 1.65 1.725 3 2.555 3 1.706 0 1.824.41-3.296-11.379-2.07-4.767-4.066-8.319-4.434-7.894-.369.425-2.202 4.48-4.073 9.01-1.871 4.53-3.667 8.243-3.992 8.25-.324.007-1.164-3.25-1.865-7.237-2.006-11.4-3.608-11.153-7.517 1.161-.722 2.275-2.498 2.853-2.577.839-.027-.687-1.301-3.95-2.831-7.25l-2.781-6-1.85 9.736m38.511.77c0 5.996.4 9.994 1 9.994.568 0 1-2.908 1-6.723v-6.723l7 6.946 7 6.946v-9.723c0-5.815-.402-9.723-1-9.723-.565 0-1.014 2.938-1.032 6.75l-.032 6.75-6.968-7.244-6.968-7.243v9.993m56.567-8.08c-2.526 2.792-1.625 5.123 3.246 8.394 3.165 2.126 4.218 3.451 3.993 5.023-.395 2.76-3.42 3.316-5.887 1.084-2.259-2.045-3.83-1.101-2.283 1.371 1.513 2.416 7.097 2.754 9.505.575 3.088-2.795 2.017-6.371-2.891-9.658-5.387-3.609-5.749-6.22-.75-5.409 2.53.411 3.5.2 3.5-.762 0-2.953-5.926-3.388-8.433-.618m17.208-.367c-3.515 1.908-4.775 4.357-4.775 9.286 0 8.425 10.905 12.404 17.077 6.232 8.262-8.262-1.946-21.138-12.302-15.518m56 0c-8.502 4.614-5.255 18.441 4.33 18.441 4.783 0 6.895-.832 6.895-2.714 0-1.047-.528-1.274-1.75-.752-6.781 2.9-11.25.327-11.25-6.477 0-5.904 5.596-8.949 11.066-6.022 1.512.81 1.934.708 1.934-.465 0-3.399-6.516-4.567-11.225-2.011m29.742.067c-2.772 2.772-1.518 6.61 2.909 8.9 4.405 2.279 5.334 3.853 3.546 6.008-1.654 1.993-4.657 1.848-5.86-.284-.705-1.25-1.298-1.443-2.073-.676-1.824 1.803 2.229 4.619 6.111 4.246 7.025-.674 7.211-8.518.27-11.418-4.995-2.087-4.933-5.908.08-4.968 3.595.674 4.413-.121 2.3-2.234-1.701-1.701-5.371-1.487-7.283.426m21.581 1.523c-2.242 6.43-.754 21.851 2.108 21.851.641 0 .701-1.007.166-2.75-1.088-3.54-1.113-14.805-.043-19 1.085-4.25-.756-4.333-2.231-.101m19.534-.399c1.062 3.443 1.125 15.831.099 19.5-1.133 4.053.901 3.395 2.263-.731 2.229-6.755.734-21.519-2.18-21.519-.664 0-.729.98-.182 2.75M44 542.583c0 7.22.308 9.482 1.25 9.173.688-.226 1.388-2.289 1.557-4.584.297-4.029.426-4.172 3.75-4.172 2.394 0 3.443-.457 3.443-1.5 0-1.048-1.056-1.5-3.5-1.5-3.067 0-3.5-.31-3.5-2.5s.433-2.5 3.5-2.5c1.925 0 3.5-.45 3.5-1s-2.25-1-5-1h-5v9.583m13.212-.414c.196 6.232.688 9.302 1.538 9.583.942.313 1.25-1.948 1.25-9.169 0-7.955-.261-9.583-1.538-9.583-1.292 0-1.491 1.461-1.25 9.169M64 542.5v9.5h5.083c5.738 0 6.616-2.268 1.09-2.813L67 548.873v-7.936c0-6.388-.293-7.937-1.5-7.937-1.228 0-1.5 1.722-1.5 9.5m42 0c0 7.778.272 9.5 1.5 9.5 1.111 0 1.5-1.167 1.5-4.5V543h9v4.5c0 3.333.389 4.5 1.5 4.5 1.228 0 1.5-1.722 1.5-9.5 0-7.778-.272-9.5-1.5-9.5-1.048 0-1.5 1.056-1.5 3.5 0 3.481-.024 3.5-4.5 3.5s-4.5-.019-4.5-3.5c0-2.444-.452-3.5-1.5-3.5-1.228 0-1.5 1.722-1.5 9.5m19-2.223c0 9.469 1.442 11.723 7.5 11.723s7.5-2.254 7.5-11.723c0-5.802-.304-7.277-1.5-7.277s-1.5 1.478-1.5 7.3c0 7.713-.922 9.7-4.5 9.7s-4.5-1.987-4.5-9.7c0-5.822-.304-7.3-1.5-7.3s-1.5 1.475-1.5 7.277m86 2.306c0 7.22.308 9.482 1.25 9.172.688-.226 1.475-2.033 1.75-4.015l.5-3.603 2.942 3.932c1.618 2.162 3.53 3.931 4.25 3.931 1.914 0 1.645-.786-1.716-5.031-2.893-3.652-2.937-3.847-1.003-4.46 5.828-1.85 3.002-9.509-3.508-9.509H211v9.583m14-.083v9.5h5c3.778 0 5-.367 5-1.5 0-1.048-1.056-1.5-3.5-1.5-3.222 0-3.5-.238-3.5-3s.278-3 3.5-3c2.444 0 3.5-.452 3.5-1.5s-1.056-1.5-3.5-1.5c-3.067 0-3.5-.31-3.5-2.5s.433-2.5 3.5-2.5c1.925 0 3.5-.45 3.5-1s-2.25-1-5-1h-5v9.5m50.015-2.75c.02 9.291 1.371 11.666 6.861 12.062 6.742.487 8.124-1.379 8.124-10.967 0-10.027-1.66-10.253-2.163-.295-.388 7.698-1.294 9.401-5.016 9.435-3.456.031-4.821-2.817-4.821-10.056 0-5.492-.311-6.929-1.5-6.929-1.187 0-1.497 1.41-1.485 6.75m19.197 2.419c.196 6.232.688 9.302 1.538 9.583.871.289 1.251-.899 1.253-3.919l.002-4.333 3.795 4.401c4.72 5.473 7.61 5.265 3.087-.222l-3.142-3.812 2.127-1.49c4.979-3.487 2.083-9.377-4.61-9.377h-4.337l.287 9.169M328 542.5v9.5h5c3.778 0 5-.367 5-1.5 0-1.083-1.111-1.5-4-1.5-3.778 0-4-.167-4-3s.222-3 4-3c2.889 0 4-.417 4-1.5s-1.111-1.5-4-1.5c-3.6 0-4-.25-4-2.5s.4-2.5 4-2.5c2.2 0 4-.45 4-1s-2.25-1-5-1h-5v9.5m42.212-.387c.196 6.276.688 9.358 1.538 9.639.859.285 1.25-.819 1.25-3.524 0-3.555.305-4.026 3.13-4.836 7.866-2.256 6.818-9.667-1.442-10.198l-4.765-.307.289 9.226M399 542.5v9.5h5.083c5.738 0 6.616-2.268 1.09-2.813l-3.173-.314v-7.936c0-6.388-.293-7.937-1.5-7.937-1.228 0-1.5 1.722-1.5 9.5m9-8.5c0 .55 1.125 1 2.5 1 2.471 0 2.5.1 2.5 8.5 0 6.889.284 8.5 1.5 8.5s1.5-1.611 1.5-8.5c0-8.4.029-8.5 2.5-8.5 1.375 0 2.5-.45 2.5-1 0-.564-2.833-1-6.5-1s-6.5.436-6.5 1m15 8.5v9.5h5.077c6.809 0 10.923-3.754 10.923-9.969S435.74 533 428.545 533H423v9.5m-344.006-4.766c-2.582 3.283-2.096 7.846 1.12 10.516 6.912 5.739 16.124-4.92 9.572-11.076-3.319-3.117-7.991-2.873-10.692.56M214 538c0 2.683.327 3.093 2.25 2.82 1.648-.235 2.25-.989 2.25-2.82s-.602-2.585-2.25-2.82c-1.923-.273-2.25.137-2.25 2.82m43.695-1.889c-4.616 2.685-4.053 10.493.92 12.759 3.471 1.582 4.736 1.428 7.75-.943 7.185-5.651-.728-16.436-8.67-11.816M297 538c0 3.365 2.764 4.194 5 1.5 1.558-1.877-.263-4.5-3.122-4.5-1.42 0-1.878.732-1.878 3m76 0c0 2.683.327 3.093 2.25 2.82 1.648-.235 2.25-.989 2.25-2.82s-.602-2.585-2.25-2.82c-1.923-.273-2.25.137-2.25 2.82m53 4v7h3.429c1.885 0 4.135-.707 5-1.571 4.098-4.099.46-12.429-5.429-12.429h-3v7m-254.815-1.507c-1.449 3.181-1.145 3.799 1.642 3.338 1.794-.297 1.877-.626.808-3.217l-1.19-2.886-1.26 2.765" fill-rule="evenodd"/>
<path fill="#a36e4b" stroke="#a36e4b" d="M125.812 46.25c.289 20.352.689 26.748 1.78 28.465 1.784 2.805 1.806 5.951.05 6.985-1.06.625-1.508 6.598-2.045 27.3-.377 14.575-.779 27.4-.892 28.5-.188 1.835.579 2.053 9.295 2.638 17.112 1.149 29.235.921 34.409-.649 2.7-.819 6.69-1.489 8.867-1.489 3.637 0 3.903-.182 3.283-2.25-2.14-7.146-2.741-19.267-3.222-65L176.803 20H125.44l.372 26.25M149.5 31.7c-3.264.765-4.5 3.342-4.5 9.384 0 4.146.409 5.859 1.5 6.278 1.156.443 1.5-.221 1.5-2.893V41h5c3.778 0 5-.367 5-1.5 0-1.135-1.226-1.5-5.035-1.5-4.725 0-4.969-.123-3.965-2 .794-1.484 2.094-2 5.035-2 2.858 0 3.965-.419 3.965-1.5 0-1.504-3.917-1.873-8.5-.8m-67.505 6.163c-4.094 2.196-5.587 6.701-4.539 13.693.826 5.504 2.544 4.886 2.544-.915C80 44.889 81.217 44 89.093 44c7.315 0 7.894.462 7.922 6.332.023 4.768 1.677 6.823 2.509 3.116.364-1.621.835-3.623 1.047-4.448.212-.825-.221-3.3-.963-5.5-2.309-6.851-10.476-9.465-17.613-5.637M81.5 51c-.362.585.676 1 2.5 1 1.824 0 2.862-.415 2.5-1-.34-.55-1.465-1-2.5-1s-2.16.45-2.5 1m9 0c-.362.585.676 1 2.5 1 1.824 0 2.862-.415 2.5-1-.34-.55-1.465-1-2.5-1s-2.16.45-2.5 1m-6.99 4.016c.346.559 1.047.758 1.559.441C86.456 54.6 86.198 54 84.441 54c-.857 0-1.276.457-.931 1.016M92.5 55c.34.55.816 1 1.059 1s.441-.45.441-1-.477-1-1.059-1-.781.45-.441 1m57.188 3.646c-.379.378-.688 4.212-.688 8.521 0 7.218.16 7.833 2.04 7.833 1.912 0 2.022-.518 1.75-8.17-.266-7.485-1.238-10.049-3.102-8.184m-61.914 17.11c-.253.966-.418 9.729-.367 19.473.088 16.845.201 17.824 2.288 19.911 2.728 2.727 4.933 1.357 5.872-3.645.538-2.869-1.252-29.845-2.438-36.745-.272-1.58-4.907-.709-5.355 1.006m58.555 16.859c.339 3.638 1.134 7.238 1.767 8 1.615 1.947 8.904 1.853 8.904-.115 0-1.048-1.056-1.5-3.5-1.5H150v-6.5c0-5.979-.172-6.5-2.145-6.5-2.039 0-2.114.326-1.526 6.615M145 115c-5.049 5.049-1.267 14.455 5.813 14.455 5.628 0 8.187-2.536 8.187-8.11 0-5.7-2.535-8.345-8-8.345-2.667 0-4.667.667-6 2m2.423 2.341c-1.021 2.659.044 7.937 1.827 9.053 3.025 1.894 5.25-.437 5.25-5.503 0-4.225-.123-4.403-3.257-4.705-2.165-.208-3.446.179-3.82 1.155M75 120.78c0 1.633-.683 4.903-1.517 7.267-1.361 3.86-1.352 5.73.091 18.29.883 7.695 1.39 15.605 1.125 17.577-.265 1.972-.107 9.436.351 16.586.459 7.15 1.056 16.713 1.328 21.25l.494 8.25h-8.137c-7.394 0-8.622.293-13.436 3.211-8.389 5.084-7.374 5.784 8.451 5.824 10.032.026 14.426.422 16.25 1.465 3.279 1.875 7.483 1.875 9.357 0 1.2-1.2 4.498-1.5 16.478-1.5 16.486 0 15.151.609 13.706-6.25-.577-2.738-.615-2.75-9.06-2.75-6.842 0-8.481-.288-8.481-1.488 0-.965-1.417-1.715-4.026-2.132-8.36-1.337-9.226-9.01-3.653-32.38 3.723-15.614 7.569-38.491 7.901-47l.292-7.5h-8.507c-4.679 0-10.869-.38-13.757-.844l-5.25-.844v2.968m-19.394 20.049c-.398.644-2.016 1.171-3.594 1.171-2.67 0-2.949.379-4.001 5.445-2.28 10.984-1.72 18.555 1.58 21.34 1.6 1.351 4.577 3.977 6.615 5.835 3.477 3.17 10.728 4.932 10.826 2.63.017-.412.678-5.475 1.468-11.25 2.014-14.722 2.023-14.643-1.988-17.241-2.55-1.652-3.491-2.982-3.5-4.95-.006-1.48-.462-2.969-1.012-3.309-.55-.34-1 .309-1 1.441 0 2.744-2.841 2.662-3.868-.112-.532-1.438-1.047-1.776-1.526-1M124 214c0 2.2.112 4.043.25 4.095 2.662 1.007 303.75.695 303.748-.315-.001-.704-2.148-2.743-4.771-4.53l-4.768-3.25H124v4m-77.958 10.5c-1.134 34.862-1.039 56.349.265 60 1.276 3.574 1.251 4.266-.229 6.5-2.648 3.993-1.463 62.82 1.327 65.898L49.31 359H429.855l2.072-2.635c2.345-2.98 2.831-20.986 1.323-48.957l-.75-13.908-.602 17.5c-.331 9.625-.94 18.283-1.353 19.239-1.111 2.575-6.643 3.601-19.9 3.691-6.52.045-12.238.318-12.706.608-.469.29-6.61.948-13.646 1.463-7.036.516-16.281 1.242-20.543 1.615-5.555.486-7.75.353-7.75-.469 0-.708 2.011-1.175 5.25-1.22 2.887-.04 7.5-.441 10.25-.892 12.984-2.125 29.482-4.254 34-4.388 5.414-.159 6.321-.92 7.54-6.322 1.292-5.73-5.615-9.413-10.817-5.768-2.396 1.678-3.104 7.162-1.174 9.092.733.733-3.57 1.262-14.25 1.753-8.414.387-18.449 1.342-22.299 2.123-8.014 1.625-27.076 3.545-33 3.324l-4-.149 4.5-.711c5.779-.912-25.382-.159-47.5 1.148-37.983 2.245-36.663 2.217-37.537.804-.95-1.538-2.178 2.167-1.844 5.559.109 1.1.127 3.71.039 5.8l-.158 3.8-5.75-.3c-3.946-.206-5.672-.692-5.5-1.55.138-.687-.087-1.25-.5-1.25-1.021 0-.923-5.178.128-6.837 1.457-2.298-.659-3.013-6.878-2.326l-6 .663-.3 5.75-.3 5.75H208v-11h-52v-21.031c0-15.951-.302-21.126-1.25-21.422-.687-.215-4.4-.576-8.25-.804-3.85-.228-6.213-.23-5.25-.005 1.576.368 1.75 1.989 1.75 16.335V329l-14.75.081c-12.361.067-49.173 1.457-54.25 2.047-.825.096-1.825.669-2.223 1.273-1.133 1.722 4.585 2.184 16.223 1.312 5.775-.433 11.175-.807 12-.832 4.561-.135 34.217-1.941 38.25-2.329l4.75-.458v3.828c0 2.105-.31 5.347-.69 7.203-.672 3.289-.71 3.312-1.47.875-.664-2.127-.745-1.977-.54 1.005l.241 3.504-3.966-.378c-3.752-.358-7.096-2.276-5.956-3.417.863-.862-4.629-1.671-12.863-1.894-6.537-.177-9.311-1.727-3.256-1.82 1.424-.022 1.629-.266.712-.848-3.202-2.031-51.212.77-51.212 2.988 0 .473-.45.86-1 .86s-1-.666-1-1.481c0-4.002-9.879-1.625-9.969 2.398-.114 5.164-1.436-1.987-2.604-14.096-1.84-19.059-1.864-34.241-.057-36.049 1.418-1.417-5.029-1.378 304.13-1.822 41.25-.059 74.325-.333 73.5-.608-.825-.275-2.162-.714-2.972-.975-2.053-.662.587-2.33 3.722-2.352 6.058-.041 6.25-1.101 6.25-34.456 0-19.215-.369-30.669-1-31.059-.632-.39-1.029 2.258-1.08 7.191-.204 20.118-2.175 29.353-5.348 25.059-.711-.963-2.593-1.764-4.182-1.78-2.455-.026-2.625-.185-1.132-1.055.967-.563 2.152-.78 2.634-.482.482.298 1.449-.841 2.149-2.531.7-1.69 1.909-3.709 2.687-4.487 5.785-5.785-20.446-7.12-32.688-1.664-1.903.848-4.378 1.644-5.5 1.768-1.122.124-2.417.283-2.878.353-.461.071-.524 1.987-.14 4.26l.698 4.132-3.708-.696c-2.39-.448-3.489-.339-3.089.307.34.551-.178 1.472-1.152 2.045-1.093.644-1.388 1.338-.771 1.812 3.776 2.901-6.103 3.868-15.5 1.516-1.375-.344-7.538-.653-13.695-.687-10.376-.056-11.235.085-11.737 1.939-.887 3.281-.644 6.665.432 6 1.31-.81 1.292.808-.024 2.124-1.083 1.083 2.139 4.747 4.364 4.96.638.061 2.198.18 3.467.264 2.078.137 2.277.576 2 4.402l-.307 4.25-5.669.297c-9.788.514-15.831-3.936-15.831-11.658 0-3.656-6.939-4.525-7.1-.889-.095 2.143-.132 2.132-.792-.24-.43-1.545-.963-2.053-1.404-1.34-.391.632-.497 1.753-.237 2.49.643 1.82-4.472 9.026-7.51 10.581-1.712.876-6.812 1.182-16.826 1.008l-14.37-.249-.228-3.785c-.318-5.258-1.094-5.075 24.11-5.687 1.71-.042 2.594-3.205 1.243-4.445-.879-.807-1.028-.649-.584.616.596 1.698-2.756 3.681-4.044 2.392-.325-.325.249-.591 1.275-.591 1.164 0 1.509-.349.917-.927-1.129-1.103-12.121-1.735-13.102-.755-1.058 1.059-2.541.803-1.848-.318.34-.55-.11-1-1-1s-1.411.337-1.158.75c.252.413-1.071.784-2.941.825-2.195.048-3.401-.395-3.401-1.25 0-.729-.45-1.325-1-1.325s-1 .675-1 1.5-.45 1.5-1 1.5-1-.675-1-1.5-.45-1.5-1-1.5-1 .617-1 1.371c0 .988-2.22 1.564-7.952 2.064l-7.952.694-.298 5.686-.298 5.685h-11l-.193-4.5c-.547-12.724-.31-12-3.929-12h-3.297l-.291 8.25-.29 8.25-5.75.3c-6.367.332-6.265.482-5.781-8.477.15-2.77-.189-3.231-2.649-3.6l-2.82-.423 2.75-.15c2.841-.155 4.186-3.996 1.5-4.284-4.126-.442-17.44.496-18.426 1.299-.647.527-3.572.893-6.5.814-2.928-.08-9.711.118-15.074.438-5.362.321-14.025.772-19.25 1.003l-9.5.42.079-4.17c.043-2.294.306-3.607.583-2.92.721 1.785 4.338 1.55 4.338-.282 0-2.759 23.401-1.659 23.798 1.119.352 2.465 6.705 2.836 8.163.477.562-.91 4.307-1.66 11.192-2.242 17.356-1.468 20.847-1.967 20.847-2.983 0-1.162-14.648-.551-26.907 1.123-9.704 1.325-10.415.928-9.786-5.462l.394-4-16.491.325-16.49.325.664-3.325c1.392-6.965 4.098-8.264 18.384-8.825l12.732-.5.31-4.888.311-4.888-14.811.519c-8.145.285-16.16 1.052-17.81 1.704-6.952 2.749-11.442 10.103-11.478 18.803-.025 6.015.322 5.876-10.829 4.31-13.328-1.873-30.199-3.174-31.415-2.423-2.129 1.316 13.531 3.215 39.222 4.756 1.375.082 2.455.702 2.4 1.378-.055.676-.167 3.071-.25 5.323l-.15 4.094-20.363-.567c-11.2-.311-21.476-.99-22.836-1.507-1.361-.517-5.585-1.176-9.387-1.464-12.473-.945-13.27-1.289-12.721-5.503.954-7.33-7.217-11.111-11.699-5.413-1.482 1.885-1.982 3.575-1.609 5.439l.54 2.704-7.212-.589c-3.967-.324-7.561-1.084-7.987-1.689-.425-.604-.723-7.624-.662-15.599.061-7.975-.34-15.85-.891-17.5l-1.001-3-.13 4m58.458-2.535c-1.902.785-1.878.873.5 1.799 2.942 1.145 5 .581 5-1.371 0-1.528-2.382-1.713-5.5-.428m-43.322 4.782c-20.783.587-9.813 3.621 15.572 4.307 1.787.049 3.25.531 3.25 1.072 0 2.149 9.481.508 9.796-1.696.266-1.86-.496-2.19-7.5-3.257-4.288-.652-8.246-1.087-8.796-.966-.55.121-6.095.364-12.322.54M116 229.412c0 .876-1.613 1.699-4.25 2.167-5.994 1.065-1.882 2.188 8.5 2.321 7.535.097 7.75.034 7.75-2.293 0-2.834-1.624-3.607-7.582-3.607-3.138 0-4.418.409-4.418 1.412m227.792 1.552c-5.262.691-6.343 1.336-5.237 3.125.995 1.61 49.523.475 52.713-1.233 1.387-.742 5.778-.961 12.677-.632 7.891.376 9.545.265 6.555-.442-4.57-1.08-59.581-1.754-66.708-.818m-23.542.843c-2.337.17-4.252.62-4.255 1-.002.381-3.639.767-8.082.858-8.888.182-9.247.3-8.32 2.717.5 1.303.947 1.415 2.036.511.786-.652 6.411-1.379 12.883-1.665 6.318-.279 11.481-.782 11.473-1.117-.046-1.817-1.941-2.578-5.735-2.304m54.75 6.298c-15.419 2.275-15.498 2.602-.546 2.27 9.893-.22 15.178.03 15.616.738.364.589.885-.095 1.157-1.521.488-2.553.412-2.59-5.116-2.445-3.086.081-8.086.512-11.111.958m25-.105c0 .55.9 1 2 1s2-.45 2-1-.9-1-2-1-2 .45-2 1m-50.333 3.667c-1.215 1.214-.691 2.28.833 1.695.825-.317 1.5-.978 1.5-1.469 0-1.048-1.378-1.182-2.333-.226m31.083 1.995c.688.278 1.813.278 2.5 0 .688-.277.125-.504-1.25-.504s-1.937.227-1.25.504M349.5 245c-1.159 1.875.464 2.757 6.234 3.388 13.481 1.474 15.815 1.852 16.716 2.709 1.649 1.568 3.55.981 3.55-1.097 0-1.333-.667-2-2-2-1.1 0-2-.45-2-1s-1.098-1-2.441-1c-1.343 0-2.719-.45-3.059-1-.34-.55-4.165-1-8.5-1s-8.16.45-8.5 1m-74.475 1.979c-1.282 1.111-2.15 2.078-1.928 2.149 3.832 1.213 6.571-.429 4.988-2.99-.524-.848-1.387-.611-3.06.841m-35.775-.273c-3.384.652-2.706 2.015.75 1.507 1.65-.242 3-.839 3-1.326 0-.488-.338-.826-.75-.751-.412.075-1.762.331-3 .57m156.563.977c.721.289 1.584.253 1.916-.079.332-.332-.258-.568-1.312-.525-1.165.048-1.402.285-.604.604M314.5 250c-.34.55-.141 1 .441 1s1.059-.45 1.059-1-.198-1-.441-1-.719.45-1.059 1m-22.846.75c-.254.412 1.631.618 4.191.458 7.936-.499 8.927-.93 2.464-1.072-3.405-.075-6.4.202-6.655.614m-54.652 5.481c-.003 1.05 4.687 2.079 5.941 1.304 2.187-1.351.932-2.525-2.441-2.284-1.924.137-3.499.578-3.5.98m19.753 1.269c.572 2.99 1.357 3.152 2.946.608 1.326-2.124.779-3.108-1.729-3.108-1.268 0-1.574.629-1.217 2.5m17.21-.958c-.97 1.169-.999 1.824-.123 2.7.877.877 1.158.841 1.158-.149 0-.724.639-1.062 1.434-.757.964.37 1.385-.086 1.287-1.393-.176-2.333-1.992-2.527-3.756-.401m40.186 3.318c3.453 4.286 11.851 4.999 11.85 1.007-.001-2.226-.427-2.621-2.751-2.551-1.512.045-4.707-.245-7.099-.645l-4.349-.726 2.349 2.915m112.361-1.616c-.418 1.011-1.203 1.431-1.867 1-2.217-1.44-11.072-.817-12.79.901-1.527 1.527-1.37 1.77 2.185 3.373 2.134.962 5.19 1.529 6.896 1.278 1.685-.247 3.064-.108 3.064.31 0 .417.9 1.045 2 1.394s2.052 1.392 2.115 2.317c.144 2.1 1.749-5.478 1.827-8.626.032-1.27-.354-2.055-.857-1.744-.503.311-1.125 0-1.383-.691-.321-.86-.697-.705-1.19.488M262 259c0 .55.477 1 1.059 1s.781-.45.441-1-.816-1-1.059-1-.441.45-.441 1m151.597 1.844c-.346.56-.142 1.319.453 1.687 1.538.95 2.53-.351 1.246-1.635-.718-.718-1.277-.735-1.699-.052m-251.328.849c.973.254 2.323.237 3-.037.677-.274-.119-.481-1.769-.461-1.65.02-2.204.244-1.231.498m8.481.023c-5.364.813-2.647 2.284 4.219 2.284 5.783 0 6.87-.255 6.393-1.5-.57-1.483-4.216-1.753-10.612-.784M52 262.941c0 .518.45 1.219 1 1.559.55.34 1-.084 1-.941S53.55 262 53 262s-1 .423-1 .941m3.5.059c-.34.55.11 1 1 1s1.34-.45 1-1c-.34-.55-.79-1-1-1-.21 0-.66.45-1 1m293.5-.198c-3.312.456-3.366.523-1 1.24 2.077.63 1.738.794-2 .968l-4.5.209 4.495.88c2.472.484 5.397.571 6.5.193 1.103-.378 9.092-.557 17.755-.396 10.91.202 15.75-.045 15.75-.802 0-.743-4.811-1.094-15-1.094-9.333 0-15-.378-15-1 0-1.021-.851-1.045-7-.198m51.433.306c-.424.686-2.157.872-4.559.488-2.513-.402-3.874-.236-3.874.473 0 1.519 11.249.684 11.768-.873.502-1.506-2.41-1.583-3.335-.088m4.567.059c0 .458.423.833.941.833s1.173-.375 1.456-.833c.283-.459-.14-.834-.941-.834-.801 0-1.456.375-1.456.834M194.5 264c2.749 1.181 4.328 1.181 2.5 0-.825-.533-2.175-.945-3-.914-.989.036-.819.347.5.914M60 265.69c0 1.607.972 1.839 8.158 1.945 8.783.13 8.816-1.394.049-2.233-2.589-.247-5.495-.694-6.457-.993-1.226-.381-1.75.003-1.75 1.281m234.762.017c1.244.239 3.044.23 4-.02s-.062-.446-2.262-.435c-2.2.011-2.982.216-1.738.455m99.488 1.009c1.512.229 3.988.229 5.5 0s.275-.416-2.75-.416-4.262.187-2.75.416m-268.5 1.99c1.237.238 3.262.238 4.5 0 1.238-.239.225-.434-2.25-.434s-3.487.195-2.25.434m83 .956c.688.278 1.813.278 2.5 0 .688-.277.125-.504-1.25-.504s-1.937.227-1.25.504m68.063.021c.721.289 1.584.253 1.916-.079.332-.332-.258-.568-1.312-.525-1.165.048-1.402.285-.604.604M112 283.023c-15.675.288 14.662.626 67.417.75 52.754.125 95.676-.013 95.382-.307-.738-.739-127.875-1.084-162.799-.443m174.25.719c3.712.192 9.788.192 13.5 0 3.712-.193.675-.35-6.75-.35s-10.462.157-6.75.35M67.186 295.519c.285.286 2.564.68 5.063.877 2.5.197 5.008.645 5.575.995.566.35 4.325.314 8.353-.08 5.843-.572 6.717-.854 4.323-1.396-3.545-.802-24.069-1.15-23.314-.396m46.078 3.199c1.52.229 3.77.223 5-.014 1.23-.237-.014-.425-2.764-.418-2.75.008-3.756.202-2.236.432M110.5 301c-.34.55-.168 1 .382 1s1.278-.45 1.618-1c.34-.55.168-1-.382-1s-1.278.45-1.618 1m418.169 8.864c.232.9.78 12.661 1.218 26.136.561 17.265 1.212 25.484 2.204 27.831 1.252 2.96 1.227 3.464-.225 4.525-1.411 1.032-1.725 4.872-2.307 28.169-.37 14.836-.898 27.748-1.173 28.692-.672 2.307.873 2.548 20.614 3.214 12.835.433 17.722.227 22-.925 3.025-.815 7.24-1.488 9.367-1.494 3.539-.011 3.81-.203 3.198-2.262-2.125-7.153-2.747-20.235-3.071-64.599-.198-27.143-.502-49.475-.677-49.628-.174-.154-11.849-.507-25.944-.787-23.381-.463-25.589-.364-25.204 1.128m-463.214 9.591c-2.874 2.873-2.969 3.651-.929 7.595 1.998 3.864 8.42 4.293 10.917.727 5.013-7.156-3.806-14.504-9.988-8.322m285.295-1.793c.688.278 1.813.278 2.5 0 .688-.277.125-.504-1.25-.504s-1.937.227-1.25.504m-26.833.714c-.229.207-6.267.679-13.417 1.048-7.15.37-15.475 1.037-18.5 1.483l-5.5.811 7 .282c20.058.806 27.5.768 27.5-.14 0-.538.386-.74.857-.448.472.291 3.509.04 6.75-.559 3.241-.599 8.143-1.423 10.893-1.83 4.235-.628 3.457-.763-5.083-.882-5.546-.078-10.271.028-10.5.235M244.5 320c-1.261.542-1.445.859-.5.859.825 0 2.4-.386 3.5-.859 1.261-.542 1.445-.859.5-.859-.825 0-2.4.386-3.5.859m305.413.605c-.732.882-1.515 4.482-1.739 8-.38 5.974-.268 6.395 1.71 6.395 1.752 0 2.116-.602 2.116-3.5V328h5.083c6.608 0 6.261-2.37-.411-2.805-6.962-.454-4.945-4.195 2.262-4.195 1.686 0 3.066-.45 3.066-1 0-1.73-10.589-1.201-12.087.605m-428.151.102c1.244.239 3.044.23 4-.02s-.062-.446-2.262-.435c-2.2.011-2.982.216-1.738.455m82.988.955c.688.278 1.813.278 2.5 0 .688-.277.125-.504-1.25-.504s-1.937.227-1.25.504m15.917.005c-1.461 1.46-.42 1.834 5.192 1.866 5.374.03 5.653-.073 3.385-1.25-2.64-1.37-7.476-1.717-8.577-.616m149.333.075c-12.153.823-6.1 2.019 10.924 2.159 16.476.135 21.136-.513 16.494-2.294-1.61-.618-17.446-.54-27.418.135M355.5 325c-.782 1.266.542 1.266 2.5 0 1.293-.835 1.266-.971-.191-.985-.93-.008-1.969.435-2.309.985m-9 2-2 .859 2-.048c1.1-.026 3.35-.391 5-.811l3-.763-3-.048c-1.65-.027-3.9.338-5 .811m138.7.2c-2.531 2.531-.984 11.184 1.84 10.287.985-.312 2.111-.052 2.501.579.519.84.923.801 1.508-.145.605-.98 1.132-1.016 2.177-.149.758.63 2.367.886 3.576.57 1.391-.364 2.198-.12 2.198.664 0 .956.36.94 1.576-.069 1.306-1.084 1.728-1.064 2.459.119 1.493 2.416 3.104-.347 3.293-5.649.138-3.891-.171-4.907-1.581-5.196-1.481-.303-1.608.024-.816 2.108 1.76 4.629.412 6.464-5.025 6.841-2.699.187-4.907.003-4.907-.41.001-.413-1.799-.75-3.999-.75-4.527 0-4.891-.932-2.551-6.532 1.522-3.643.329-4.846-2.249-2.268m-259.427 1.961c-.7.445-2.285.815-3.523.824-1.37.009-2.25.628-2.25 1.582 0 1.021.611 1.39 1.75 1.057.963-.28 3.887-.812 6.5-1.181 2.613-.368 4.75-1.018 4.75-1.443 0-1.124-5.729-1.789-7.227-.839m19.596.541c.737.738 7.728.534 8.51-.248.25-.25-1.721-.454-4.379-.454-2.658 0-4.517.316-4.131.702M63 331.79c-4.738.719-4.535 2.21.3 2.21 2.585 0 4.7-.402 4.7-.893 0-1.234-2.027-1.768-5-1.317m136 1.244c-2.475.45-10.463.851-17.75.892-8.117.045-13.25.461-13.25 1.074 0 .55 2.505 1 5.566 1s6.503.502 7.65 1.115c3.006 1.609 22.784 2.502 22.784 1.029 0-.629.931-1.144 2.07-1.144 1.574 0 1.993-.539 1.75-2.25-.367-2.577-2.161-2.927-8.82-1.716m290.269 1.659c.973.254 2.323.237 3-.037.677-.274-.119-.481-1.769-.461-1.65.02-2.204.244-1.231.498m8.731.401c0 .498.9.906 2 .906s2-.173 2-.383c0-.211-.9-.619-2-.907-1.1-.287-2-.115-2 .384m-174.461 2.107c-27.678.848-30.589 1.083-29.313 2.358 2.213 2.213 61.632-.361 60.243-2.61-.323-.522-.898-.878-1.278-.792-.38.086-13.723.556-29.652 1.044m-47.039 2.755c-2.968.712-2.974.725-.5 1.252 1.375.293 4.075.57 6 .615l3.5.083-2.5-1.418c-1.375-.779-2.725-1.38-3-1.334-.275.045-1.85.406-3.5.802m11.262-.249c1.244.239 3.044.23 4-.02s-.062-.446-2.262-.435c-2.2.011-2.982.216-1.738.455M270 342c0 1.1.45 2 1 2s1-.9 1-2-.45-2-1-2-1 .9-1 2m76 1.059c0 .582.45.781 1 .441s1-.816 1-1.059-.45-.441-1-.441-1 .477-1 1.059m6.813-.376c.721.289 1.584.253 1.916-.079.332-.332-.258-.568-1.312-.525-1.165.048-1.402.285-.604.604m-255 1c.721.289 1.584.253 1.916-.079.332-.332-.258-.568-1.312-.525-1.165.048-1.402.285-.604.604M553 354c0 6.444.292 8 1.5 8s1.5-1.556 1.5-8-.292-8-1.5-8-1.5 1.556-1.5 8m-449 2c0 1.187 1.737 1.187 4.5 0 1.676-.72 1.474-.871-1.25-.93-1.787-.038-3.25.38-3.25.93m60.5.285c31.276.6 51.894.591 57-.023 5.797-.698-7.697-.957-49-.94l-57 .023 49 .94m67.262-.578c1.244.239 3.044.23 4-.02s-.062-.446-2.262-.435c-2.2.011-2.982.216-1.738.455m259.929 5.668c-.298 2.269-1.249 7.95-2.115 12.625-2.272 12.277-2.124 23.194.346 25.429 4.235 3.833 6.837-6.219 7.102-27.429.194-15.559.326-14.75-2.408-14.75-2.039 0-2.462.597-2.925 4.125m-439.992 1.536c-2.09.435-4.241 1.231-4.778 1.768-1.766 1.766-2.49 59.469-.79 62.903.852 1.722 1.26 4.558.993 6.918-1.534 13.596-1.152 67.812.491 69.627 2.419 2.673 382.145 2.971 384.814.302 1.358-1.359 1.569-5.59 1.556-31.25-.009-16.324-.346-29.165-.75-28.536-.493.766-7.15 1.287-20.235 1.582-10.725.241-20.288.788-21.25 1.214-2.309 1.022-2.309 4.576 0 4.514 7.696-.208 38.113-2.851 39.5-3.433 2.42-1.015 2.537 16.197.16 23.465l-1.59 4.861-7.66.657c-4.213.362-10.36 1.068-13.66 1.57-3.3.501-9.488.915-13.75.919-4.262.005-7.75.388-7.75.853 0 2.039-22.7 3.364-64.5 3.767-45.758.441-47.442.621-42.382 4.512 2.975 2.288 7.072 2.534 6.244.376-.317-.825-.078-1.5.531-1.5s1.107.419 1.107.93c0 .512 1.012 1.126 2.25 1.364l2.25.434-2.25.136c-2.296.139-3.504 5.136-1.242 5.136.599 0 .497.851-.25 2.092-1.138 1.893-1.974 2.053-8.758 1.674-11.509-.643-12.457-1.733-13.923-16.016-.149-1.453-9.79-.8-11.077.75-1.061 1.279-.785 1.5 1.878 1.5 2.455 0 3.122.427 3.122 2 0 1.443-.667 2-2.393 2-2.411 0-4.124 2.355-3.016 4.147.328.532.311 2.109-.04 3.505l-.637 2.538-13.753-.345c-15.985-.401-18.411-1.344-20.16-7.842-.593-2.202-1.497-4.003-2.008-4.003-.512 0-.671-.675-.355-1.5.436-1.135-.18-1.5-2.531-1.5-2.095 0-3.107.489-3.107 1.5 0 1.1-1.132 1.496-4.25 1.485-2.965-.011-3.812-.293-2.802-.932 1.133-.716.851-1.065-1.297-1.604-2.839-.713-4.151-.121-4.151 1.871 0 .634-.787 1.304-1.75 1.49-1.301.25-1.75-.324-1.75-2.237 0-1.728-.544-2.573-1.655-2.573-1.488 0-1.473-.201.155-2 1.053-1.164 3.104-2.01 4.905-2.024 1.702-.013 4.895-.518 7.095-1.122 2.2-.604 5.553-1.203 7.451-1.33 3.782-.255 5.218-2.029 2.354-2.908-6.637-2.036-23.918-.484-24.631 2.212-.243.92-.494-.241-.558-2.578-.113-4.152-.041-4.25 3.134-4.251 1.787-.001 7.004-.662 11.592-1.47 4.588-.807 8.638-1.428 9-1.38 2.025.27 3.158-.322 3.158-1.649 0-2.157-15.818-.879-24.705 1.996-1.854.6-2.305.26-2.839-2.141-2.159-9.703-5.089-14.065-11.832-17.613-6.269-3.3-23.247-3.229-29.624.124-4.355 2.289-5.142 2.357-24.5 2.097-25.976-.348-32.5-.16-32.5.936 0 1.402 7.831 2.133 29.25 2.731 10.863.303 19.75.874 19.75 1.269 0 .395-.661 1.592-1.468 2.66-.808 1.067-1.483 2.905-1.5 4.084-.031 2.069-.475 2.149-12.685 2.297-7.375.089-13.527.634-14.75 1.306-1.153.634-3.16 1.024-4.459.867-1.608-.194-2.219.141-1.913 1.051.303.903 2.042 1.286 5.362 1.182 5.892-.184 23.302-1.851 25.413-2.433 1.17-.322 1.566.742 1.802 4.837l.303 5.25-6.803.206c-7.501.228-10.827.445-26.302 1.718-5.775.475-11.737.912-13.25.97-2.116.082-2.75.602-2.75 2.261 0 2.143.074 2.15 13.75 1.306 23.996-1.481 36.139-.958 35.784 1.539-.14.984-1.56 1.596-4.124 1.778-2.979.212-3.553.026-2.41-.78 1.181-.834.968-.957-1-.582-5.784 1.101-30.476 1.645-29 .638 1.078-.736-.608-.985-6-.888-6.725.12-7.035.207-3 .834 3.49.543 2.369.711-5 .75-6.104.033-8.606-.236-7-.75 1.375-.44 1.938-.845 1.25-.9-1.71-.137-1.581-4.912.18-6.673 1.241-1.24 1.488-1.131 1.864.821l.434 2.252.136-2.25c.129-2.134.547-2.25 8.136-2.25 6.444 0 8-.292 8-1.5 0-1.627-3.677-2.022-14.37-1.544-4.585.205-5.77-.035-5.414-1.097.251-.747 1.092-1.42 1.87-1.494.778-.074 2.089-.193 2.914-.265 1.333-.116 1.333-.238 0-1.1-1.213-.784-1.069-.972.75-.985 1.237-.008 2.257.548 2.265 1.235.027 2.182 1.953-1.573 1.97-3.839C90 463.349 86.521 461 83.453 461c-.799 0-1.453-.389-1.453-.863 0-1.977-12.01-3.44-20.799-2.534l-8.701.897-.31 3.75c-.279 3.362-.066 3.75 2.05 3.75 1.298 0 2.881.521 3.518 1.158.876.876 1.537.842 2.724-.143.861-.715 1.855-1.011 2.209-.658.353.354.102.643-.56.643-.908 0-.929.509-.085 2.086.614 1.147.855 2.347.535 2.666-.32.32-.581.001-.581-.708 0-.913-.364-.989-1.25-.26-1.096.903-6.135 1.612-9.359 1.317-1.224-.111-2.598-12.773-2.778-25.601l-.113-8L239 438c104.775-.275 189.15-.725 187.5-1-5.012-.835-4.703-4.621.449-5.491 7-1.183 7.051-1.417 7.051-32.232 0-17.518-.358-27.277-1-27.277-.563 0-1 2.804-1 6.412v6.412l-2.75-.348c-4.217-.533-20.707 1.468-21.083 2.559-.184.531-1.62.965-3.191.965-1.572 0-3.136.45-3.476 1-.34.55-1.687 1-2.994 1-1.307 0-3.643.5-5.191 1.11-3.265 1.288-1.315 2.686 3.935 2.82 2.537.065 2.75.385 2.75 4.129 0 2.47.394 3.815 1.007 3.437.554-.343 1.251.014 1.55.792.605 1.578 7.158 1.686 8.276.137 1.155-1.602 4.169-1.584 4.787.028.65 1.694 4.38 2.159 4.38.547 0-.55.9-1 2-1s2 .45 2 1 1.125 1 2.5 1c1.894 0 2.5.523 2.5 2.158v2.158l-28.25-.546c-29.864-.576-31.576-.471-29.669 1.828.985 1.186.179 1.337-5.208.974-28.709-1.935-45.839-2.435-46.505-1.358-1.035 1.674 1.727 3.573 6.164 4.239 4.258.638 4.468.826 4.468 3.986 0 4.964-1.87 5.951-9.767 5.154-7.966-.804-10.964-3.104-11.919-9.147-.755-4.777-1.613-5.434-6.146-4.698-3.138.509-3.428.369-2.776-1.34.482-1.265.392-1.571-.267-.908-.546.55-1.161 2.838-1.366 5.085-.815 8.936-6.291 11.539-23.88 11.352-14.182-.15-15.229-.586-14.697-6.122l.318-3.315 13-.5c12.167-.468 13-.628 13-2.5 0-1.27-.547-1.869-1.5-1.642-.825.198-8.363.6-16.75.894l-15.25.535v5.275c0 6.004-.76 8.705-2.198 7.815-.544-.336-7.585-.8-15.646-1.031-8.061-.231-15.862-.895-17.336-1.475-2.63-1.036-5.82-6.118-5.82-9.272 0-1.202-1.055-1.619-4.25-1.679-2.338-.043-6.725-.246-9.75-.451-3.025-.205-13.058-.605-22.296-.89-16.813-.518-18.704-.795-18.704-2.738 0-.71 5.725-.81 18-.314 12.121.491 18 .393 18-.299 0-.973-15.85-2.303-31-2.6l-6.5-.128-.5-17-.5-17h-11l-.088 16c-.064 11.593-.408 15.931-1.25 15.75-.639-.137-1.162.2-1.162.75s.675 1 1.5 1c1.442 0 2.168 3.999.947 5.22-.304.304-2.557-.051-5.006-.788-4.608-1.387-79.857-2.35-81.168-1.038-1.114 1.113.237 1.502 10.263 2.95l9.964 1.439-10.5.095c-14.481.131-15-.063-15-5.603 0-4.183.158-4.452 2.292-3.917 1.26.317 4.86.877 8 1.246 3.139.369 5.709.947 5.71 1.284.002.336 1.338.659 2.97.717 1.632.058 2.729-.28 2.438-.75-.29-.47.309-.855 1.331-.855 3.967 0 4.79-6.246 1.367-10.37-.6-.723-.885-1.519-.635-1.77.251-.251-1.027-.556-2.841-.678-4.388-.296-9.058 3.811-8.377 7.369.452 2.365.274 2.448-5.144 2.434-6.999-.019-8.161-.748-8.051-5.053.048-1.887-.414-6.096-1.027-9.351-.612-3.256-.983-9.106-.823-13l.29-7.081 12-.549c6.6-.302 10.425-.643 8.5-.759-1.925-.115-5.75-.403-8.5-.64s-6.71-.075-8.801.359M75 363c-1.138.736-.716.973 1.75.985 1.787.008 3.25-.435 3.25-.985 0-1.27-3.035-1.27-5 0m38.5 0c-2.161.55-.903.763 4.5.763 5.403 0 6.661-.213 4.5-.763-1.65-.42-3.675-.763-4.5-.763-.825 0-2.85.343-4.5.763m313.25.662c.688.278 1.813.278 2.5 0 .688-.277.125-.504-1.25-.504s-1.937.227-1.25.504M550 379.066c0 8.399 1.009 9.934 6.535 9.934 2.456 0 4.465-.45 4.465-1s-.93-1-2.066-1c-4.678 0-5.934-1.701-5.934-8.035 0-4.636-.334-5.965-1.5-5.965-1.168 0-1.5 1.341-1.5 6.066M392.5 381l-4 .716 3.691.142c2.03.078 3.969-.308 4.309-.858.34-.55.479-.936.309-.858-.17.078-2.109.464-4.309.858m-175 11.921c4.4.324 9.8.306 12-.041 2.237-.352-1.289-.612-8-.589-10.993.037-11.329.09-4 .63m114.089 1.289c-.896.502-2.408.689-3.359.417-.952-.272-3.53-.088-5.73.408-2.779.628-.03.759 9 .429 15.655-.571 23.872-2.344 10.359-2.235-4.752.038-9.374.479-10.27.981m21.161-.548c.688.278 1.813.278 2.5 0 .688-.277.125-.504-1.25-.504s-1.937.227-1.25.504m60.508 3.561c-.083 1.102.163 1.62.546 1.152a10.46 10.46 0 0 1 1.53-1.474c.458-.343.213-.861-.546-1.152-.867-.333-1.435.214-1.53 1.474m-160.911 1.027c-.256.413.912.75 2.594.75s3.059-.402 3.059-.894c0-1.064-4.983-.937-5.653.144m49.153 1.657c-4.195.498-4.597.712-2.5 1.329 4.254 1.253 8 .909 8-.736 0-.825-.113-1.429-.25-1.343-.137.087-2.5.424-5.25.75m22.578-.007c-2.433.33-4.586 1.099-4.787 1.709-.582 1.775 12.477 2.413 31.209 1.524 9.35-.444 19.813-.601 23.25-.35 9.616.704 7.403-1.2-3-2.581-9.291-1.234-38.414-1.422-46.672-.302m150.922.403c0 .311-.657 3.69-1.46 7.509-1.951 9.273-1.957 11.444-.074 27.188.887 7.425 1.338 14.607 1.002 15.961-.862 3.466 1.509 43.088 2.732 45.67.556 1.172.748 2.972.428 4-.77 2.473.307 4.014 3.712 5.308 5.668 2.155 9.496-.61 7.632-5.513-1.593-4.189-1.27-4.426 6.028-4.426 6.174 0 7-.221 7-1.872 0-1.395-.97-2.028-3.808-2.481-9.03-1.444-9.908-7.221-4.668-30.727 5.687-25.512 8.424-41.944 8.323-49.983l-.095-7.564-9.126-1.2c-5.019-.66-11.039-1.479-13.376-1.818-2.337-.34-4.25-.364-4.25-.052m73.861 1.609c-1.872 1.516-2.361 2.88-2.361 6.588 0 8.111 8.448 11.643 14.167 5.924 7.417-7.417-3.634-19.13-11.806-12.512M385 403c.825.533 1.95.969 2.5.969s.325-.436-.5-.969c-.825-.533-1.95-.969-2.5-.969s-.325.436.5.969m-133 1.5c0 1.158 1.198 1.474 5.25 1.384 2.887-.064 4.35-.332 3.25-.597-1.1-.265-2.428-.887-2.95-1.384-1.564-1.486-5.55-1.057-5.55.597m298.8 1.04c-1.83 4.016.004 7.96 3.7 7.96 2.308 0 3.16-.591 3.905-2.71 1.365-3.88-.595-7.79-3.905-7.79-1.753 0-2.903.789-3.7 2.54m-327.409 4.917c.397 2.705 2.636 3.511 9.8 3.528 11.556.026 10.104-3.473-1.874-4.518-7.366-.642-8.151-.544-7.926.99m152.609.637c0 .498.9.906 2 .906s2-.173 2-.383c0-.211-.9-.619-2-.907-1.1-.287-2-.115-2 .384m-282.75.595c.963.252 2.537.252 3.5 0 .963-.251.175-.457-1.75-.457s-2.713.206-1.75.457m39.563-.006c.721.289 1.584.253 1.916-.079.332-.332-.258-.568-1.312-.525-1.165.048-1.402.285-.604.604M143 416.544c0 .116.675.771 1.5 1.456 1.217 1.01 1.5.97 1.5-.211 0-.801-.675-1.456-1.5-1.456s-1.5.095-1.5.211m307.038 4.43c-4.018.61-6.225 5.97-7.423 18.026l-.646 6.5 6.202 6.343c4.246 4.343 7.183 6.502 9.314 6.848l3.113.505 3.136-13.339 3.137-13.339-3.436-2.832c-2.486-2.049-3.435-3.64-3.435-5.759 0-1.61-.45-2.927-1-2.927s-1 .886-1 1.969c0 2.317-2.29 1.809-3.623-.803-.665-1.303-1.715-1.591-4.339-1.192M151.5 426.968l-25 .585 37 .331c44.353.397 87.767.183 88.386-.436.246-.247-15.321-.448-34.594-.448-19.273 0-36.336-.139-37.917-.309-1.581-.17-14.125-.045-27.875.277m108.769.725c.973.254 2.323.237 3-.037.677-.274-.119-.481-1.769-.461-1.65.02-2.204.244-1.231.498m8.481-.031c.688.278 1.813.278 2.5 0 .688-.277.125-.504-1.25-.504s-1.937.227-1.25.504m20.063.021c.721.289 1.584.253 1.916-.079.332-.332-.258-.568-1.312-.525-1.165.048-1.402.285-.604.604m7.937-.021c.688.278 1.813.278 2.5 0 .688-.277.125-.504-1.25-.504s-1.937.227-1.25.504m135.981 13.418c.354 1.352.807 1.806 1.057 1.057.24-.722-.038-1.787-.62-2.369-.742-.742-.872-.351-.437 1.312m-76.932 8.836c-.419 2.857-.325 2.923 4.637 3.28 2.785.199 6.639.101 8.564-.219l3.5-.581-3.82-1.299c-2.101-.714-4.062-1.928-4.357-2.698-.329-.857-2-1.399-4.316-1.399-3.411 0-3.822.285-4.208 2.916M85 451c0 .55.675 1 1.5 1s1.5-.45 1.5-1-.675-1-1.5-1-1.5.45-1.5 1m72.286 5.728c-3.792 1.889-6.157 6.37-6.82 12.923-.813 8.037-.792 8.052 9.785 7.09 5.087-.463 11.075-.707 13.306-.542 3.79.281 4.071.12 4.266-2.449.115-1.512-.284-2.75-.887-2.75-.693 0-.857-1.085-.446-2.953 2.027-9.232-9.614-16.094-19.204-11.319m-67.467-.245c-2.463 2.577.731 3.443 13.023 3.535 6.962.052 13.558.149 14.658.216 1.1.067 4.25-.026 7-.208l5-.331-6.5-.864c-3.575-.475-8.525-1.029-11-1.23-2.475-.201-8.325-.695-13-1.098-4.675-.403-8.806-.412-9.181-.02m311.836 7.346c-2.427 2.681-2.129 7.725.568 9.614 4.998 3.501 10.777.758 10.777-5.117 0-5.645-7.585-8.652-11.345-4.497M231 466.215c0 .432 1.763.785 3.918.785 2.155 0 4.63.273 5.5.607 1.042.4 1.582.053 1.582-1.015 0-1.328-.999-1.581-5.5-1.393-3.025.127-5.5.584-5.5 1.016M77.015 468.25c.009.688.454 1.925.99 2.75.747 1.149.926.856.767-1.25-.202-2.665-1.788-4.019-1.757-1.5m238.735.412c.688.278 1.813.278 2.5 0 .688-.277.125-.504-1.25-.504s-1.937.227-1.25.504m10.5.054c1.512.229 3.988.229 5.5 0s.275-.416-2.75-.416-4.262.187-2.75.416m-209.981.977c.973.254 2.323.237 3-.037.677-.274-.119-.481-1.769-.461-1.65.02-2.204.244-1.231.498m243.231.354c-2.75.428-9.275 1.08-14.5 1.447-20.599 1.45-21.354 2.372-1.5 1.831 11-.3 20.758-.945 21.684-1.435.927-.489 2.952-.897 4.5-.905 1.549-.009 3.491-.452 4.316-.985 1.81-1.17-6.874-1.142-14.5.047m-265.75 1.659c1.237.238 3.263.238 4.5 0 1.237-.239.225-.434-2.25-.434s-3.487.195-2.25.434m136.595 2.837c-.799 2.083-.665 2.144 5.834 2.659 4.877.387 5.746.193 6.156-1.375.637-2.437-.441-2.944-4.059-1.906-1.704.489-3.608.483-4.392-.014-2-1.266-2.869-1.11-3.539.636m30.655-.16c0 .888 4.046 1.352 4.558.523.308-.498-.592-.906-1.999-.906s-2.559.173-2.559.383m-4.731 1.31c.973.254 2.323.237 3-.037.677-.274-.119-.481-1.769-.461-1.65.02-2.204.244-1.231.498m-204.19 2.116c-.048 1.407-.507 2.044-1.175 1.632-.683-.423-.953.026-.717 1.191.294 1.448 1.215 1.842 4.096 1.754 2.045-.063 3.717.275 3.717.75s-.45.864-1 .864-1 .9-1 2c0 1.333.667 2 2 2s2-.667 2-2 .667-2 2-2c4.057 0 2.555-4.807-1.75-5.599-2.062-.379-4.087-1.187-4.5-1.795-.527-.777-1.011-.701-1.629.257-.742 1.151-.963 1.151-1.421 0-.306-.77-.576-.358-.621.946M292 478.5c0 1.083 1.111 1.5 4 1.5 4.753 0 5.302-1.49.875-2.375-4.434-.887-4.875-.808-4.875.875m20 .5c-7.464.551-6.733.638 6 .714 8.546.051 13.473-.242 12-.714-2.813-.901-5.793-.901-18 0m24.75.662c.688.278 1.813.278 2.5 0 .688-.277.125-.504-1.25-.504s-1.937.227-1.25.504M151 480.941c0 .518.445 1.216.989 1.552.566.35.734-.051.393-.941-.665-1.732-1.382-2.049-1.382-.611m25-.224c0 .577-.9 1.285-2 1.573-2.071.541-2.904 4.71-.941 4.71.582 0 .781-.45.441-1s-.157-1 .406-1c1.257 0 3.479-3.948 2.675-4.752-.32-.32-.581-.109-.581.469m14.574 3.95c-.352.917-.287 2.019.143 2.449.431.43.848-.32.927-1.667.169-2.861-.175-3.112-1.07-.782m40.226-.467c1.451 1.451 1.6 3.165.2 2.3-1.532-.947-1.188 1.099.408 2.424 1.58 1.311 9.592 1.162 9.592-.179 0-.474.338-.655.75-.401.412.253.844-.845.96-2.441l.209-2.903h-6.659c-5.18 0-6.393.267-5.46 1.2m-77.987.483c.721.289 1.584.253 1.916-.079.332-.332-.258-.568-1.312-.525-1.165.048-1.402.285-.604.604M414 485c0 1.163 5.369 1.163 9 0 1.908-.611 1.138-.824-3.25-.9-3.233-.056-5.75.338-5.75.9m-362.921 1.583c.048 1.165.285 1.402.604.605.289-.722.253-1.585-.079-1.917-.332-.332-.568.258-.525 1.312M401 486c-1.213.784-1.069.972.75.985 1.238.008 2.25-.435 2.25-.985 0-1.253-1.061-1.253-3 0m-247.187.683c.721.289 1.584.253 1.916-.079.332-.332-.258-.568-1.312-.525-1.165.048-1.402.285-.604.604M162 487c0 .55.45 1 1 1s1-.45 1-1-.45-1-1-1-1 .45-1 1m189.5 0c-.34.55-.141 1 .441 1s1.059-.45 1.059-1-.198-1-.441-1-.719.45-1.059 1m42.5-.161c2.048.463 1.686.683-2 1.213-3.439.495-2.495.643 4 .63 4.675-.01 6.813-.195 4.75-.41-2.062-.216-3.75-.816-3.75-1.332 0-.517-1.238-.879-2.75-.804-2.746.136-2.747.137-.25.703m-111.49 1.177c.346.559 1.047.758 1.559.441 1.387-.857 1.129-1.457-.628-1.457-.857 0-1.276.457-.931 1.016m98.24.646c.688.278 1.813.278 2.5 0 .688-.277.125-.504-1.25-.504s-1.937.227-1.25.504m-248 1c.688.278 1.813.278 2.5 0 .688-.277.125-.504-1.25-.504s-1.937.227-1.25.504m175.5.054c1.512.229 3.988.229 5.5 0s.275-.416-2.75-.416-4.262.187-2.75.416m31.5.016c2.337.211 6.163.211 8.5 0 2.337-.21.425-.383-4.25-.383s-6.587.173-4.25.383M123.5 503.074c-8.1.818 99.834.73 115-.094 6.6-.358-15.225-.62-48.5-.581-33.275.038-63.2.342-66.5.675m130.313-.391c.721.289 1.584.253 1.916-.079.332-.332-.258-.568-1.312-.525-1.165.048-1.402.285-.604.604m7 0c.721.289 1.584.253 1.916-.079.332-.332-.258-.568-1.312-.525-1.165.048-1.402.285-.604.604m29 0c.721.289 1.584.253 1.916-.079.332-.332-.258-.568-1.312-.525-1.165.048-1.402.285-.604.604M80.329 533.458C70.779 537.612 74.35 552 84.931 552c9.885 0 13.37-12.143 5.094-17.75-3.816-2.585-5.296-2.706-9.696-.792M240 534c-3.119 3.119-1.517 6.715 4.013 9.005 2.494 1.033 3.034 1.786 2.79 3.888-.357 3.071-3.773 4.053-5.763 1.655-1.62-1.952-3.04-1.991-3.04-.083 0 3.965 8.171 4.73 10.619.994 2.24-3.42.636-6.908-4.085-8.88-2.441-1.02-3.534-2.121-3.534-3.559 0-2.574 2.508-3.673 4.537-1.989.831.69 1.837.928 2.236.53.847-.848-2.554-3.561-4.464-3.561-.72 0-2.209.9-3.309 2m18-.93c-9.881 4.027-6.836 18.93 3.867 18.93 5.463 0 9.078-3.174 9.807-8.61.968-7.211-6.841-13.105-13.674-10.32m55.383.513c-8.872 4.377-5.855 18.417 3.958 18.417 4.504 0 6.659-.855 6.659-2.642 0-1.102-.442-1.192-1.934-.393-7.763 4.155-15.488-5.422-9.611-11.915 2.093-2.313 8.367-2.828 10.345-.85.933.933 1.2.817 1.2-.525 0-3.314-5.816-4.46-10.617-2.092m29.577.248c-3.056 2.475-2.08 6.463 1.994 8.15 3.946 1.635 5.353 3.476 4.561 5.971-.812 2.558-5.017 2.76-6.39.306-.536-.958-1.33-1.386-1.765-.952-1.319 1.32 1.177 4.174 3.941 4.506 7.586.909 9.68-7.25 2.767-10.777-4.861-2.48-5.735-3.797-3.803-5.729 1.208-1.208 1.932-1.271 3.704-.323 2.854 1.528 4.116.284 1.588-1.565-2.56-1.872-3.877-1.789-6.597.413m21.553 1.483c-2.516 6.022-1.25 21.686 1.752 21.686.527 0 .611-.779.188-1.75-1.333-3.068-1.695-14.715-.582-18.746 1.403-5.08.572-5.808-1.358-1.19m19.17-1.064c.449 1.237.817 5.85.817 10.25s-.368 9.013-.817 10.25c-.49 1.348-.429 2.25.152 2.25 3.029 0 4.26-15.444 1.716-21.532-1.588-3.8-3.185-4.841-1.868-1.218M44 542.5c0 5.667.404 9.5 1 9.5.55 0 1-1.998 1-4.44 0-4.39.041-4.443 3.673-4.75 5.275-.445 5.621-2.81.41-2.81-3.689 0-4.083-.241-4.083-2.5 0-2.25.4-2.5 4-2.5 2.2 0 4-.45 4-1s-2.25-1-5-1h-5v9.5m14 0c0 5.667.404 9.5 1 9.5s1-3.833 1-9.5-.404-9.5-1-9.5-1 3.833-1 9.5m6 0v9.5h5c2.75 0 5-.45 5-1s-1.575-1-3.5-1H67v-8.5c0-6.889-.284-8.5-1.5-8.5-1.228 0-1.5 1.722-1.5 9.5m42 0c0 7.286.308 9.565 1.25 9.255.699-.23 1.384-2.472 1.555-5.083l.305-4.672h8.78l.305 4.672c.171 2.611.856 4.853 1.555 5.083.942.31 1.25-1.952 1.25-9.172 0-7.852-.271-9.583-1.5-9.583-1.048 0-1.5 1.056-1.5 3.5 0 3.474-.033 3.5-4.437 3.5-4.25 0-4.449-.133-4.75-3.173-.172-1.745-.875-3.358-1.563-3.583-.942-.31-1.25 1.97-1.25 9.256m19-2.083c0 8.954 1.702 11.583 7.5 11.583s7.5-2.629 7.5-11.583c0-10.084-2.359-9.982-2.8.121-.33 7.537-1.286 9.462-4.7 9.462s-4.37-1.925-4.7-9.462c-.441-10.103-2.8-10.205-2.8-.121m19.632.856c-1.873 9.431-1.965 10.727-.762 10.727.478 0 1.442-2.812 2.141-6.25l1.271-6.25 2.973 6.496 2.973 6.497 2.577-6.282c2.791-6.803 3.524-6.638 4.632 1.039.856 5.933 4.441 6.821 7.063 1.75 1.283-2.481 2.167-3 5.113-3 3.038 0 3.727.44 4.693 3 .871 2.307 3.694 4.372 3.694 2.701 0-.669-7.791-17.825-8.348-18.382-.331-.331-1.513 1.487-2.627 4.039a1017.85 1017.85 0 0 1-4.167 9.392l-2.142 4.75-1.855-8.914c-1.02-4.902-2.015-9.073-2.21-9.269-.196-.195-1.729 2.914-3.408 6.909l-3.052 7.264-2.595-5.87c-1.428-3.228-2.596-6.236-2.596-6.685 0-.45-.39-1.058-.868-1.353-.477-.295-1.602 3.166-2.5 7.691m38.411.977c-.026 5.862.356 9.75.957 9.75.575 0 1.001-3.084 1.001-7.25l.002-7.25 6.95 7.5 6.951 7.5.048-9.75c.029-5.865-.35-9.75-.952-9.75-.564 0-1 2.833-1 6.5 0 3.575-.273 6.5-.606 6.5-.333 0-3.464-3.038-6.957-6.75l-6.351-6.75-.043 9.75m27.957.195c0 5.703.403 9.555 1 9.555.55 0 1-1.8 1-4 0-5.042 1.13-5.047 4.685-.021 1.548 2.188 3.378 3.988 4.065 4 1.887.032 1.541-.884-1.757-4.639l-3.006-3.425 2.736-2.353c4.409-3.793 2.424-7.953-3.992-8.367L211 532.89v9.555m14 .055v9.5h5c2.75 0 5-.45 5-1s-1.575-1-3.5-1c-3.321 0-3.5-.176-3.5-3.437 0-3.127.285-3.464 3.173-3.75 4.584-.452 4.929-2.813.41-2.813-3.155 0-3.583-.298-3.583-2.5 0-2.19.433-2.5 3.5-2.5 1.925 0 3.5-.45 3.5-1s-2.25-1-5-1h-5v9.5m50.667-8.833c-1.986 1.985.055 15.904 2.565 17.497 2.365 1.501 8.391.91 10.113-.993 1.882-2.079 2.458-17.171.655-17.171-.565 0-1 2.855-1 6.566 0 8-1.128 10.434-4.835 10.434-4.277 0-5.165-1.668-5.165-9.7 0-6.717-.586-8.381-2.333-6.633M295 542.5c0 5.667.404 9.5 1 9.5.55 0 1-2.09 1-4.644v-4.644l3.546 4.644c3.246 4.252 5.454 5.819 5.454 3.872 0-.425-1.331-2.386-2.957-4.359l-2.956-3.587 2.456-1.12c5.37-2.446 2.626-9.162-3.743-9.162H295v9.5m33 0v9.5h5c5.805 0 6.793-1.731 1.25-2.19-3.406-.282-3.778-.602-4.059-3.496-.292-3.021-.115-3.203 3.423-3.5 5.318-.447 5.713-2.814.469-2.814-3.689 0-4.083-.241-4.083-2.5 0-2.25.4-2.5 4-2.5 2.2 0 4-.45 4-1s-2.25-1-5-1h-5v9.5m43 0c0 5.667.404 9.5 1 9.5.55 0 1-2.025 1-4.5 0-4.262.148-4.5 2.8-4.5 3.496 0 5.2-1.639 5.2-5 0-3.593-1.744-5-6.2-5H371v9.5m28.212-.25.288 9.25 4.75.305c2.857.183 4.75-.116 4.75-.75 0-.58-1.575-1.055-3.5-1.055H402v-8.5c0-6.981-.275-8.5-1.538-8.5-1.293 0-1.491 1.469-1.25 9.25M408 534c0 .55 1.107 1 2.46 1 2.388 0 2.468.237 2.75 8.17.419 11.808 2.79 12.16 2.79.413 0-8.489.028-8.583 2.5-8.583 1.375 0 2.5-.45 2.5-1 0-.564-2.833-1-6.5-1s-6.5.436-6.5 1m15.212 8.25.288 9.25 5.469-.154c8.664-.244 12.51-6.652 8.568-14.274-1.781-3.445-3.267-4.072-9.656-4.072h-4.956l.287 9.25m-344.139-4.615c-2.75 3.495-2.618 6.911.382 9.91C84.331 552.422 92 549.146 92 542.186c0-6.865-8.699-9.927-12.927-4.551M213 538c0 2.828.268 3.102 2.75 2.816 2.182-.251 2.75-.832 2.75-2.816s-.568-2.565-2.75-2.816c-2.482-.286-2.75-.012-2.75 2.816m43.073-.365c-2.75 3.495-2.618 6.911.382 9.91 4.208 4.208 10.322 2.803 12.478-2.868 2.961-7.788-7.687-13.619-12.86-7.042M297 538c0 2.828.268 3.102 2.75 2.816 2.182-.251 2.75-.832 2.75-2.816s-.568-2.565-2.75-2.816c-2.482-.286-2.75-.012-2.75 2.816m76 0c0 2.498.401 3 2.393 3 2.758 0 4.172-2.614 2.502-4.627C375.75 533.789 373 534.704 373 538m53 4.611v7.612l3.75-.675c9.079-1.632 8.565-14.548-.579-14.548H426v7.611m-254.925-2.296c-1.426 3.735-1.446 3.685 1.425 3.685 2.848 0 2.98-.508 1.04-4l-1.389-2.5-1.076 2.815" fill-rule="evenodd"/>
<path fill="#211e1d" stroke="#211e1d" d="M125.476 21.961c.326.528.58 11.733.563 24.9-.027 21.591.16 24.366 1.913 28.281 1.93 4.31 1.929 4.355-.041 6.453-1.824 1.941-1.992 3.606-2.075 20.509-.049 10.118-.289 22.542-.533 27.609-.529 11.003-2.556 9.928 20.197 10.708 12.333.422 17.261.21 21.5-.925 3.025-.81 7.412-1.478 9.75-1.484 4.32-.012 4.98-.78 3.325-3.871-1.985-3.709-3.025-26.497-3.144-68.891L176.806 21h-25.962c-16.344 0-25.742.356-25.368.961m21.648 10.789c-2.061 1.719-3.467 13.24-1.817 14.89 1.442 1.442 3.693-.757 3.693-3.609 0-2.926.156-3.031 4.5-3.031 3.333 0 4.5-.389 4.5-1.5s-1.167-1.5-4.5-1.5c-3.18 0-4.5-.409-4.5-1.393 0-1.683 2.155-2.607 6.082-2.607 1.927 0 2.918-.509 2.918-1.5 0-2.205-8.158-2.017-10.876.25M86 36.679c-5.417 1.808-8.107 3.599-7.558 5.03.326.85.083 2.158-.54 2.909-1.346 1.621-.271 10.728 1.162 9.842.515-.318.936-2.55.936-4.96 0-5.31.619-5.747 8.646-6.112 7.408-.337 9.306 1.292 9.424 8.085.056 3.165.254 3.599.93 2.027 2.698-6.277-.104-14.955-5.157-15.975A316.678 316.678 0 0 1 89 36.514c-.825-.185-2.175-.111-3 .165M82.5 51c-1.759.756-1.662.868.809.93 1.632.041 2.55-.349 2.191-.93-.34-.55-.704-.968-.809-.93-.105.039-1.091.457-2.191.93m9.973.044c-.325.526.336.956 1.468.956 2.415 0 2.658-.556.591-1.349-.807-.31-1.734-.133-2.059.393M149 66.5c0 7.833.157 8.5 2 8.5s2-.667 2-8.5-.157-8.5-2-8.5-2 .667-2 8.5m-58.393 8.327c-.341.551-.054 1.204.637 1.451.691.246.882.847.424 1.334-.47.5-1.502.017-2.375-1.114-1.498-1.94-1.525-1.925-.932.502.337 1.375.618 3.764.625 5.309.008 1.615.439 2.546 1.014 2.191.616-.381 1 1.323 1 4.441 0 6.119 1.421 6.798 1.694.809.58-12.71-.165-18.034-2.087-14.923m55.566 18.232c.454 8.035 1.191 8.903 7.577 8.926 5.608.02 6.039-2.716.5-3.175l-3.75-.31-.298-6.25c-.264-5.553-.528-6.25-2.363-6.25-1.929 0-2.038.464-1.666 7.059m1.827 19.64c-8.312 3.115-6.098 17.301 2.701 17.301 5.743 0 8.263-2.766 8.284-9.095.02-6.204-5.441-10.284-10.985-8.206m-.393 4.883c-2.172 5.66 1.075 10.729 5.393 8.418 2.28-1.22 2.788-6.812.8-8.8-1.714-1.714-5.478-1.482-6.193.382m-71.735 1.819c-.375 3.233-.884 5.604-2.241 10.44-1.485 5.294-1.298 8.159.532 8.159 1.865 0 6.839-6.494 7.444-9.718.616-3.285 4.393-4.96 4.393-1.949 0 .734.655 1.334 1.456 1.334.801 0 1.177-.452.836-1.004-.375-.607.069-.738 1.126-.333.96.369 2.226.67 2.812.67 1.251 0 .492 13.94-1.143 21-2.864 12.364-3.448 18.879-3.428 38.267.021 19.39-.095 20.729-1.742 20.207-.97-.308-3.261.247-5.09 1.233-3.137 1.691-3.31 2.063-3.022 6.537.354 5.526 2.202 7.044 7.987 6.564 3.958-.329 4.345-1.446 2.709-7.808l-.643-2.5 7.071.332c6.604.31 7.071.194 7.071-1.75 0-1.666-.626-2.082-3.132-2.082-3.538 0-10.443-6.26-9.172-8.316.392-.636.594-2.545.447-4.243-.146-1.699 1.077-8.905 2.717-16.015 6.816-29.533 10.561-53.422 8.14-51.926-.55.34-1 .141-1-.441s.45-1.059 1-1.059 1.001-1.237 1.002-2.75l.003-2.75-7.253.312c-3.988.171-9.84-.098-13.002-.599-4.052-.641-5.788-.586-5.878.188m18.38 11.099c.011 2.2.216 2.982.455 1.738.239-1.244.23-3.044-.02-4s-.446.062-.435 2.262m-33.134 12.25c-.137 2.612-1.351 2.874-3.475.75-.825-.825-3.044-1.5-4.93-1.5h-3.43l-1.28 7.481c-1.351 7.902-.532 11.043 2.57 9.853.811-.312 1.427.048 1.427.832 0 1.835 6.778 5.467 7.943 4.256.488-.507 1.091-1.822 1.34-2.922.524-2.321.052 3.653-.89 11.25l-.651 5.25h6.89l1.175-9.75c.646-5.363 1.446-11.335 1.778-13.272.556-3.25.307-3.713-3.232-6.003-2.543-1.645-4.05-3.491-4.475-5.478-.497-2.321-.668-2.49-.76-.747M87.5 217c-.34.55-.141 1 .441 1S89 217.55 89 217s-.198-1-.441-1-.719.45-1.059 1m75.769 11.069c-17.064 1.65-19.77 6.607-20.191 36.986L142.871 280h12.349l-.254-9.75c-.14-5.363-.19-10.312-.11-11 .108-.94 3.988-1.25 15.644-1.25H186v-7.808l-10.331-.704c-5.682-.387-12.652-.543-15.49-.346-5.823.404-6.414-.219-4.806-5.06 2.064-6.217 5.185-7.538 18.696-7.916l11.931-.333V227l-7.25.136c-3.988.075-10.954.495-15.481.933m-97.614 22.76c-3.588 3.964-.83 10.171 4.519 10.171 4.718 0 7.288-5.4 4.791-10.066-1.362-2.545-7.044-2.61-9.31-.105m337.658-1.043c-2.986 1.898-3.406 6.212-.853 8.765 3.89 3.89 8.364 2.73 10.057-2.606 1.46-4.598-4.933-8.875-9.204-6.159m-259.08 74.464.267 26.25h10l.267-26.25.266-26.25h-11.066l.266 26.25m385.802 9.5c.028 19.571.335 25.273 1.465 27.25 1.842 3.223 1.882 6.979.088 8.39-1.139.896-1.484 6.556-1.789 29.33l-.377 28.221 4.039.602c6.588.982 37.543-.19 44.157-1.672 5.637-1.263 6.055-1.541 5.316-3.53-1.881-5.061-2.928-27.286-2.938-62.341-.005-20.625-.297-40.538-.648-44.25l-.637-6.75H530l.035 24.75m-464.38-13.921C60.747 325.252 68.832 333.168 74 328c1.1-1.1 2-3.055 2-4.345 0-4.969-6.976-7.549-10.345-3.826m337.745-1.064c-3.865 2.581-3.286 8.419 1.03 10.385 5.086 2.317 10.233-3.963 7.13-8.699-1.601-2.444-5.744-3.299-8.16-1.686m149.6-.056c-3.954 1.454-5 3.535-5 9.946 0 5.678.21 6.345 2 6.345 1.547 0 2-.667 2-2.945 0-2.803.228-2.96 4.741-3.25 7.188-.462 7.508-3.805.364-3.805-4.071 0-4.931-.289-4.467-1.5.391-1.018 1.987-1.5 4.969-1.5 3.726 0 4.393-.304 4.393-2 0-2.027-5.035-2.749-9-1.291m-.55 27.561c-.299.779-.41 4.75-.247 8.824.266 6.64.504 7.406 2.297 7.406 2.864 0 3.103-16.76.247-17.31-.964-.186-1.998.3-2.297 1.08m-60.205 17.261c-.056 2.992.286 5.679.761 5.972.474.294.597 2.17.272 4.171-.424 2.613-.265 3.436.566 2.922.636-.393 1.156-2.037 1.156-3.655 0-1.618.427-2.941.948-2.941.521 0 .935-2.7.919-6-.024-4.932-.326-5.997-1.698-5.985-1.417.013-1.447.156-.198.946.809.512 1.11 1.292.668 1.733-.441.442-1.363.037-2.047-.9-1.053-1.439-1.261-.861-1.347 3.737M143.031 383.25c.075 34.633 2.057 37.862 23.673 38.582l12.296.409V413l-7.75-.006c-9.555-.006-14.855-1.391-16.415-4.288-.742-1.379-1.358-9.235-1.642-20.956l-.455-18.75H143l.031 14.25m406.357-3.763c.836 8.159 1.242 9.179 3.931 9.901 4.675 1.254 7.681.711 7.681-1.388 0-1.606-.667-2-3.383-2-3.821 0-4.58-1.443-4.603-8.75-.012-3.671-.305-4.25-2.152-4.25-2.033 0-2.105.32-1.474 6.487M66 392c-2.403 2.403-2.538 4.786-.443 7.777 1.922 2.745 6.476 2.949 8.788.394 5.262-5.814-2.804-13.712-8.345-8.171m336.655-.171c-3.464 3.827-.86 10.171 4.174 10.171 2.721 0 6.171-3.354 6.171-6 0-4.93-7.076-7.784-10.345-4.171m72.521 11.553c.223 1.913.119 3.3-.231 3.084-.971-.6-3.142 12.857-2.39 14.817.912 2.377 1.952 2.159 4.926-1.033 2.667-2.862 5.052-9.578 4.005-11.273-.761-1.231-.487-1.222 3.336.111 1.716.598 3.02 1.61 2.899 2.25-.122.639.6 1.022 1.603.851 4.132-.704 6.181 5.13 3.537 10.07-.626 1.171-1.263 3.279-1.415 4.685-.733 6.787-2.701 18.976-3.641 22.556-.578 2.2-1.028 12.438-.999 22.75.049 17.588-.062 18.75-1.796 18.75-4.907 0-7.749 3.11-7.254 7.936.558 5.433 2.486 7.259 7.244 6.859 3.73-.314 3.827-.577 2.611-7.054l-.609-3.241h7.249c8.299 0 10.592-2.423 3.399-3.592-4.15-.674-8.972-5.309-8.1-7.785.266-.757-.086-2.081-.783-2.942-.99-1.223-.994-1.401-.017-.814.907.545 1.25-.228 1.25-2.816 0-1.962 1.756-11.551 3.901-21.309 2.146-9.758 3.928-18.417 3.96-19.242.032-.825.367-2.804.744-4.399.486-2.057.353-2.693-.46-2.191-.673.416-1.145.065-1.145-.851 0-.857.633-1.559 1.406-1.559 1.625 0 2.808-6.82 2.982-17.191l.112-6.692-6-1.002c-3.3-.551-8.25-1.277-11-1.613-2.75-.336-6.064-.833-7.365-1.105-2.182-.455-2.334-.224-1.959 2.985M548 402c-5.198 5.198-1.017 15 6.398 15 7.153 0 10.919-6.729 7.452-13.316-2.29-4.35-10.22-5.314-13.85-1.684m4.427 1.765c-3.063 2.098-2.574 8.736.72 9.782 2.902.921 4.853-1.315 4.853-5.562 0-4.305-2.587-6.264-5.573-4.22m-107.616 24.631c-2.115 6.964-1.689 10.504 1.182 9.825.649-.153 1.389.522 1.645 1.5.256.979 1.991 2.778 3.856 4 3.383 2.217 3.391 2.217 4.039.175 1.487-4.686 1.428-.618-.089 6.048-1.847 8.125-1.926 7.791 1.936 8.23l2.865.326 3.095-12.887 3.095-12.886-3.454-2.884c-2.783-2.324-3.412-3.513-3.231-6.114.21-3.021.151-3.084-.916-.979-1.371 2.707-2.294 2.821-4.027.5-.778-1.042-2.64-1.755-4.6-1.762-3.208-.012-3.349.168-5.396 6.908M494.272 432c0 2.475.195 3.488.434 2.25.238-1.238.238-3.262 0-4.5-.239-1.238-.434-.225-.434 2.25m-337.946 14.01c-12.761 2.628-18.273 10.76-18.294 26.99-.025 19.462 7.338 27.042 26.186 26.959 11.204-.05 16.564-2.222 21.441-8.688 7.618-10.098 6.086-31.661-2.84-39.987-4.721-4.404-17.938-7.035-26.493-5.274m2.274 9.435c-4.006 1.461-4.558 1.991-7.234 6.944-2.315 4.284-2.037 16.307.511 22.066 2.362 5.34 4.756 6.545 13.001 6.545 9.404 0 13.125-5.337 13.118-18.815-.006-13.837-8.131-20.849-19.396-16.74m330.479 2.138c.048 1.165.285 1.402.604.605.289-.722.253-1.585-.079-1.917-.332-.332-.568.258-.525 1.312M66 464c-3.694 3.694-2.014 9.285 3.163 10.532 5.697 1.372 9.461-7.581 4.614-10.975-2.991-2.095-5.374-1.96-7.777.443m337.223-.443c-5.311 3.72-.847 12.771 5.17 10.484 4.82-1.833 5.752-5.986 2.152-9.586-2.86-2.861-4.273-3.034-7.322-.898m-38.269 71.054c-2.604 6.829-1.893 20.073 1.18 21.972.473.292.411-.649-.137-2.091-1.302-3.425-1.282-15.611.031-19.066.565-1.487.803-2.928.528-3.203-.275-.275-.996.8-1.602 2.388M44 541.941c0 4.918.45 9.219 1 9.559.616.381 1-1.323 1-4.441V542h4.059c2.451 0 3.814-.396 3.441-1-.34-.55-2.166-1-4.059-1-3.004 0-3.441-.318-3.441-2.5s.437-2.5 3.441-2.5c1.893 0 3.719-.45 4.059-1 .381-.616-1.323-1-4.441-1H44v8.941m14 .559c0 6.157.36 9.396 1 9 .55-.34 1-4.39 1-9s-.45-8.66-1-9c-.64-.396-1 2.843-1 9m7.186-.25L65 552h3.941c5.137 0 6.222-1.784 1.33-2.188L66.5 549.5l-.564-8.5-.563-8.5-.187 9.75m12.403-6.173c-5.225 6.209-2.073 14.515 5.913 15.58 7.162.956 12.682-5.539 10.451-12.298-2.326-7.049-11.625-8.914-16.364-3.282m29.161-2.505c-1.127 1.144-.903 17.216.25 17.928.616.381 1-1.323 1-4.441V542h11v5.059c0 3.118.384 4.822 1 4.441.55-.34 1-4.39 1-9s-.45-8.66-1-9c-.595-.368-1 .823-1 2.941V540H108.121l-.311-3.595c-.17-1.977-.648-3.252-1.06-2.833m19 .003c-1.74 1.76-.79 13.104 1.323 15.79 2.625 3.337 7.741 3.603 10.507.547 2.207-2.439 3.516-16.912 1.529-16.912-.699 0-1.109 2.424-1.109 6.566 0 8.407-1.064 10.434-5.476 10.434-4.375 0-4.92-.971-5.524-9.842-.275-4.038-.838-7.001-1.25-6.583m42.805 7.866c-2.068 4.643-3.535 9.03-3.259 9.75.288.752 1.012-.073 1.701-1.941 1.789-4.851 8.944-4.895 10.766-.066.661 1.751 1.501 2.886 1.865 2.521.532-.532-6.373-18.705-7.107-18.705-.112 0-1.897 3.798-3.966 8.441m14.465.309c-.012 5.513.384 9.25.98 9.25.564 0 1.019-2.945 1.043-6.75l.043-6.75 6.351 6.75c3.493 3.712 6.624 6.75 6.957 6.75.333 0 .606-4.05.606-9 0-5.333-.407-9-1-9-.571 0-1.019 3.112-1.044 7.25l-.043 7.25-6.936-7.5-6.937-7.5-.02 9.25m28.647-8.083c-1.069 1.068-.768 17.153.333 17.833.612.378 1.015-1.248 1.038-4.191l.039-4.809 4.441 5c4.613 5.194 6.381 4.911 1.982-.318-3.023-3.592-3.132-4.784-.5-5.472 2.29-.598 2.812-5.498.8-7.51-1.276-1.276-7.015-1.652-8.133-.533m13.757.671c-.283.737-.381 4.899-.219 9.25l.295 7.912 3.882.318c2.135.175 4.362-.162 4.95-.75.757-.757-.171-1.068-3.192-1.068h-4.261l.311-3.75c.293-3.55.511-3.767 4.081-4.062 4.624-.382 3.939-2.188-.83-2.188-3.004 0-3.441-.318-3.441-2.5 0-2.25.4-2.5 4-2.5 2.2 0 4-.45 4-1 0-1.553-8.972-1.236-9.576.338m14.826-.676c-2.976 1.201-1.38 6.231 2.627 8.275 4.299 2.193 5.748 4.605 4.018 6.69-1.521 1.832-5.812 1.752-6.531-.121-.316-.822-1.006-1.227-1.534-.901-1.4.865 2.127 4.395 4.391 4.395 7.045 0 8.287-7.68 1.779-11-2.664-1.359-4-2.712-4-4.052 0-2.512 2.531-3.582 4.537-1.917 1.667 1.383 3.045.72 2.004-.964-.669-1.084-5.012-1.324-7.291-.405m14.673 2.261c-3.251 3.251-3.716 6.644-1.498 10.932 3.783 7.316 15.007 6.425 17.589-1.396 3.264-9.892-8.666-16.961-16.091-9.536M276 540.884c0 8.879 1.454 11.116 7.223 11.116 5.003 0 6.777-3.01 6.777-11.5 0-4.333-.422-7.5-1-7.5-.575 0-1 3.1-1 7.3 0 7.96-.897 9.7-5 9.7-4.034 0-5-1.766-5-9.141 0-3.708-.45-7.019-1-7.359-.635-.392-1 2.304-1 7.384m19 1.675c0 6.118.36 9.337 1 8.941.55-.34 1.015-2.504 1.033-4.809l.034-4.191 2.042 2.5c4.798 5.871 6.069 7.155 6.58 6.644.298-.298-.839-2.216-2.527-4.264-3.047-3.696-3.269-5.38-.71-5.38 1.363 0 2.548-2.098 2.548-4.51 0-2.4-3.059-4.49-6.571-4.49H295v9.559m15.923-6.636c-5.967 5.968-1.446 16.077 7.19 16.077 2.662 0 5.887-1.772 5.887-3.235 0-.867-.307-.858-1.2.035-3.685 3.685-12.8-.508-12.8-5.888 0-5.845 5.83-10.222 10.674-8.015 2.837 1.293 4.651.553 2.297-.936-3.208-2.029-9-1.086-12.048 1.962m17.289 6.327.288 9.25 3.882.318c2.135.175 4.362-.162 4.95-.75.757-.757-.153-1.068-3.132-1.068H330v-8h4.059c2.451 0 3.814-.396 3.441-1-.34-.55-2.166-1-4.059-1-3.004 0-3.441-.318-3.441-2.5s.437-2.5 3.441-2.5c1.893 0 3.719-.45 4.059-1 .381-.617-1.335-1-4.479-1h-5.096l.287 9.25M342 535c-1.482 2.769.166 5.51 4.567 7.599 2.897 1.375 3.484 2.153 3.236 4.29-.376 3.241-4.087 4.069-6.885 1.536-1.72-1.556-1.918-1.568-1.918-.115 0 3.542 6.629 4.862 9.345 1.861 2.855-3.154.874-9.171-3.019-9.171-1.776 0-4.592-3.865-3.979-5.463.663-1.726 4.198-2.082 5.163-.521.346.559 1.054.753 1.575.431 1.783-1.102-.201-2.447-3.609-2.447-2.382 0-3.727.601-4.476 2m29 7.559c0 6.118.36 9.337 1 8.941.55-.34 1-2.391 1-4.559 0-3.702.18-3.941 2.965-3.941 2.973 0 5.035-2.196 5.035-5.363 0-2.536-2.978-4.637-6.571-4.637H371v9.559m13.713-6.059c1.012 5.369.694 14.31-.64 18-.986 2.727-.952 2.829.38 1.115 2.913-3.748 3.244-17.025.536-21.437-.748-1.219-.824-.584-.276 2.322m15.473 5.75L400 552h3.941c5.137 0 6.222-1.784 1.33-2.188l-3.771-.312-.564-8.5-.563-8.5-.187 9.75M408 534c0 .55 1.332 1 2.961 1h2.961l.333 8.75.334 8.75.205-8.75L415 535h3c1.65 0 3-.45 3-1 0-.564-2.833-1-6.5-1s-6.5.436-6.5 1m16 8.614v9.613l4.75-.712c6.416-.962 7.895-1.91 9.214-5.907 2.343-7.099-1.851-12.608-9.599-12.608H424v9.614m-342.685-7.629c-4.696 1.939-5.834 9.24-2.001 12.841 3.937 3.698 9.81 2.768 12.244-1.939 3.393-6.56-3.357-13.744-10.243-10.902m63.774 5.284c-.641 3.427-1.421 7.525-1.734 9.106-.344 1.741-.186 2.638.403 2.274.535-.33 1.528-3.424 2.207-6.875l1.236-6.274 2.998 6.5 2.997 6.5 2.529-5.75c3.142-7.143 3.865-7.184 4.73-.266.599 4.8 2.546 8.874 2.544 5.325-.001-1.63-3.007-16.15-3.431-16.574-.171-.171-1.561 2.631-3.089 6.227-3.393 7.983-3.438 7.986-6.415.493-3.167-7.974-3.603-8.034-4.975-.686m113.411-5.061c-4.859 2.787-5.859 7.794-2.427 12.157 2.48 3.154 7.578 3.571 10.813.885 6.885-5.716-.671-17.467-8.386-13.042M213 538c0 2.642.345 3 2.893 3 3.019 0 4.472-1.885 3.469-4.5-.328-.855-1.82-1.5-3.469-1.5-2.548 0-2.893.358-2.893 3m84 0c0 2.828.268 3.102 2.75 2.816 2.182-.251 2.75-.832 2.75-2.816s-.568-2.565-2.75-2.816c-2.482-.286-2.75-.012-2.75 2.816m76 0c0 2.828.268 3.102 2.75 2.816 2.182-.251 2.75-.832 2.75-2.816s-.568-2.565-2.75-2.816c-2.482-.286-2.75-.012-2.75 2.816m52.206 4.25c.289 7.125.343 7.256 3.109 7.573 5.891.675 10.354-5.791 7.602-11.014-1.672-3.173-2.818-3.776-7.211-3.794l-3.794-.015.294 7.25m-254.9-1.25c-1.097 2.906-1.041 3 1.781 3 3.101 0 3.543-.955 1.878-4.066-1.438-2.687-2.342-2.424-3.659 1.066" fill-rule="evenodd"/>
</svg>